<svg xmlns="http://www.w3.org/2000/svg" xmlns:xlink="http://www.w3.org/1999/xlink" width="1080" zoomAndPan="magnify" viewBox="0 0 810 809.999993" height="1080" preserveAspectRatio="xMidYMid meet" version="1.0"><defs><g/><clipPath id="741aa9aa5b"><path d="M 95.648438 121.40625 L 714.398438 121.40625 L 714.398438 778.40625 L 95.648438 778.40625 Z M 95.648438 121.40625 " clip-rule="nonzero"/></clipPath><clipPath id="50992a1517"><path d="M 169 650 L 480.050781 650 L 480.050781 721.699219 L 169 721.699219 Z M 169 650 " clip-rule="nonzero"/></clipPath><clipPath id="fbc3b2bbcc"><path d="M 151.550781 631.699219 L 462 631.699219 L 462 704 L 151.550781 704 Z M 151.550781 631.699219 " clip-rule="nonzero"/></clipPath></defs><rect x="-81" width="972" fill="#ffffff" y="-80.999999" height="971.999992" fill-opacity="1"/><rect x="-81" width="972" fill="#000000" y="-80.999999" height="971.999992" fill-opacity="1"/><path fill="#8c9eff" d="M 96.953125 777.09375 L 713.003906 777.09375 L 713.003906 123.035156 L 96.953125 123.035156 Z M 96.953125 777.09375 " fill-opacity="1" fill-rule="nonzero"/><path fill="#000000" d="M 110.527344 763.511719 L 699.429688 763.511719 L 699.429688 174.285156 L 110.527344 174.285156 Z M 110.527344 763.511719 " fill-opacity="1" fill-rule="nonzero"/><path fill="#ef5350" d="M 139.160156 149.355469 C 139.160156 153.15625 137.65625 156.796875 134.96875 159.484375 C 132.285156 162.171875 128.640625 163.683594 124.84375 163.683594 C 116.9375 163.683594 110.527344 157.265625 110.527344 149.355469 C 110.527344 141.445312 116.9375 135.03125 124.84375 135.03125 C 132.753906 135.03125 139.160156 141.445312 139.160156 149.355469 Z M 139.160156 149.355469 " fill-opacity="1" fill-rule="nonzero"/><path fill="#9ccc65" d="M 184.648438 149.355469 C 184.648438 157.265625 178.242188 163.683594 170.332031 163.683594 C 166.535156 163.683594 162.894531 162.171875 160.210938 159.484375 C 157.523438 156.796875 156.015625 153.15625 156.015625 149.355469 C 156.015625 141.445312 162.425781 135.03125 170.332031 135.03125 C 178.242188 135.03125 184.648438 141.445312 184.648438 149.355469 Z M 184.648438 149.355469 " fill-opacity="1" fill-rule="nonzero"/><path fill="#fff59d" d="M 230.136719 149.355469 C 230.136719 157.265625 223.726562 163.683594 215.820312 163.683594 C 207.910156 163.683594 201.5 157.265625 201.5 149.355469 C 201.5 141.445312 207.910156 135.03125 215.820312 135.03125 C 223.726562 135.03125 230.136719 141.445312 230.136719 149.355469 Z M 230.136719 149.355469 " fill-opacity="1" fill-rule="nonzero"/><g clip-path="url(#741aa9aa5b)"><path stroke-linecap="round" transform="matrix(0.0868949, 0, 0, -0.0868949, 95.64963, 778.656317)" fill="none" stroke-linejoin="round" d="M 15.000832 17.982271 L 7104.612422 17.982271 L 7104.612422 7544.993887 L 15.000832 7544.993887 Z M 15.000832 17.982271 " stroke="#000000" stroke-width="30" stroke-opacity="1" stroke-miterlimit="4"/></g><path stroke-linecap="round" transform="matrix(0.0868949, 0, 0, -0.0868949, 95.64963, 778.656317)" fill="none" stroke-linejoin="round" d="M 171.215127 174.286473 L 6948.398127 174.286473 L 6948.398127 6955.200635 L 171.215127 6955.200635 Z M 171.215127 174.286473 " stroke="#000000" stroke-width="30" stroke-opacity="1" stroke-miterlimit="4"/><path stroke-linecap="round" transform="matrix(0.0868949, 0, 0, -0.0868949, 95.64963, 778.656317)" fill="none" stroke-linejoin="round" d="M 500.726144 7242.095493 C 500.726144 7198.35549 483.418948 7156.458591 452.490766 7125.485455 C 421.607537 7094.602226 379.665684 7077.205123 335.970635 7077.205123 C 244.984237 7077.205123 171.215127 7151.064141 171.215127 7242.095493 C 171.215127 7333.126845 244.984237 7406.940909 335.970635 7406.940909 C 427.001987 7406.940909 500.726144 7333.126845 500.726144 7242.095493 Z M 500.726144 7242.095493 " stroke="#000000" stroke-width="30" stroke-opacity="1" stroke-miterlimit="4"/><path stroke-linecap="round" transform="matrix(0.0868949, 0, 0, -0.0868949, 95.64963, 778.656317)" fill="none" stroke-linejoin="round" d="M 1024.212609 7242.095493 C 1024.212609 7151.064141 950.488452 7077.205123 859.457101 7077.205123 C 815.762052 7077.205123 773.865153 7094.602226 742.981924 7125.485455 C 712.053741 7156.458591 694.701592 7198.35549 694.701592 7242.095493 C 694.701592 7333.126845 768.470702 7406.940909 859.457101 7406.940909 C 950.488452 7406.940909 1024.212609 7333.126845 1024.212609 7242.095493 Z M 1024.212609 7242.095493 " stroke="#000000" stroke-width="30" stroke-opacity="1" stroke-miterlimit="4"/><path stroke-linecap="round" transform="matrix(0.0868949, 0, 0, -0.0868949, 95.64963, 778.656317)" fill="none" stroke-linejoin="round" d="M 1547.699074 7242.095493 C 1547.699074 7151.064141 1473.929964 7077.205123 1382.943566 7077.205123 C 1291.912214 7077.205123 1218.143104 7151.064141 1218.143104 7242.095493 C 1218.143104 7333.126845 1291.912214 7406.940909 1382.943566 7406.940909 C 1473.929964 7406.940909 1547.699074 7333.126845 1547.699074 7242.095493 Z M 1547.699074 7242.095493 " stroke="#000000" stroke-width="30" stroke-opacity="1" stroke-miterlimit="4"/><path fill="#311b92" d="M 170.871094 720.511719 L 478.984375 720.511719 L 478.984375 651.15625 L 170.871094 651.15625 Z M 170.871094 720.511719 " fill-opacity="1" fill-rule="nonzero"/><g clip-path="url(#50992a1517)"><path stroke-linecap="round" transform="matrix(0.0467682, 0, 0, -0.0468086, 151.551821, 721.68056)" fill="none" stroke-linejoin="round" d="M 413.085458 24.970662 L 7001.176055 24.970662 L 7001.176055 1506.653859 L 413.085458 1506.653859 Z M 413.085458 24.970662 " stroke="#000000" stroke-width="45.076" stroke-opacity="1" stroke-miterlimit="4"/></g><path stroke-linecap="round" transform="matrix(0.0467682, 0, 0, -0.0468086, 151.551821, 721.68056)" fill-opacity="1" fill="#c5cae9" fill-rule="nonzero" stroke-linejoin="round" d="M 282.955697 155.238613 L 6871.046294 155.238613 L 6871.046294 1636.92181 L 282.955697 1636.92181 Z M 282.955697 155.238613 " stroke="#000000" stroke-width="45.076" stroke-opacity="1" stroke-miterlimit="4"/><path stroke-linecap="round" transform="matrix(0.0467682, 0, 0, -0.0468086, 151.551821, 721.68056)" fill-opacity="1" fill="#1a237e" fill-rule="nonzero" stroke-linejoin="round" d="M 152.742413 285.506564 L 6740.833009 285.506564 L 6740.833009 1767.189761 L 152.742413 1767.189761 Z M 152.742413 285.506564 " stroke="#000000" stroke-width="45.076" stroke-opacity="1" stroke-miterlimit="4"/><path fill="#e8eaf6" d="M 152.605469 702.21875 L 460.722656 702.21875 L 460.722656 632.863281 L 152.605469 632.863281 Z M 152.605469 702.21875 " fill-opacity="1" fill-rule="nonzero"/><g clip-path="url(#fbc3b2bbcc)"><path stroke-linecap="round" transform="matrix(0.0467682, 0, 0, -0.0468086, 151.551821, 721.68056)" fill="none" stroke-linejoin="round" d="M 22.529128 415.774515 L 6610.703249 415.774515 L 6610.703249 1897.457712 L 22.529128 1897.457712 Z M 22.529128 415.774515 " stroke="#000000" stroke-width="45.076" stroke-opacity="1" stroke-miterlimit="4"/></g><g fill="#00c655" fill-opacity="1"><g transform="translate(142.942307, 281.511165)"><g><path d="M 44.34375 -61.6875 C 44.976562 -57.625 45.347656 -54.226562 45.453125 -51.5 C 45.566406 -48.78125 45.625 -45.191406 45.625 -40.734375 L 45.625 -31.609375 C 45.625 -26.378906 45.445312 -22.578125 45.09375 -20.203125 C 44.738281 -17.835938 44.347656 -15.578125 43.921875 -13.421875 C 43.492188 -11.265625 42.960938 -9.617188 42.328125 -8.484375 C 41.691406 -7.359375 40.894531 -6.101562 39.9375 -4.71875 C 38.988281 -3.34375 37.910156 -2.335938 36.703125 -1.703125 C 33.734375 -0.0664062 30.335938 0.75 26.515625 0.75 L 6.359375 0 L 6.359375 -76.59375 L 26.515625 -77.65625 C 30.203125 -77.65625 33.300781 -76.929688 35.8125 -75.484375 C 38.320312 -74.035156 40.210938 -72.390625 41.484375 -70.546875 C 42.753906 -68.710938 43.707031 -65.757812 44.34375 -61.6875 Z M 26.515625 -8.703125 C 28.859375 -8.703125 30.59375 -9.515625 31.71875 -11.140625 C 32.351562 -12.054688 32.898438 -12.9375 33.359375 -13.78125 C 33.828125 -14.632812 34.179688 -15.910156 34.421875 -17.609375 C 34.671875 -19.304688 34.882812 -20.753906 35.0625 -21.953125 C 35.238281 -23.160156 35.363281 -24.910156 35.4375 -27.203125 C 35.507812 -29.503906 35.546875 -31.328125 35.546875 -32.671875 L 35.546875 -44.875 C 35.546875 -49.820312 35.421875 -53.09375 35.171875 -54.6875 C 34.921875 -56.28125 34.671875 -57.90625 34.421875 -59.5625 C 34.179688 -61.226562 33.828125 -62.46875 33.359375 -63.28125 C 32.898438 -64.09375 32.351562 -64.925781 31.71875 -65.78125 C 30.59375 -67.40625 28.859375 -68.21875 26.515625 -68.21875 L 15.59375 -68.21875 L 16.4375 -65.5625 L 16.4375 -11.359375 L 15.484375 -8.703125 Z M 26.515625 -8.703125 "/></g></g></g><g fill="#00c655" fill-opacity="1"><g transform="translate(193.86184, 281.511165)"><g><path d="M 12.203125 -62.390625 C 10.503906 -62.390625 9.015625 -63.039062 7.734375 -64.34375 C 6.460938 -65.65625 5.828125 -67.175781 5.828125 -68.90625 C 5.828125 -70.632812 6.460938 -72.097656 7.734375 -73.296875 C 9.015625 -74.503906 10.503906 -75.109375 12.203125 -75.109375 C 13.898438 -75.109375 15.382812 -74.503906 16.65625 -73.296875 C 17.925781 -72.097656 18.5625 -70.632812 18.5625 -68.90625 C 18.5625 -67.175781 17.925781 -65.65625 16.65625 -64.34375 C 15.382812 -63.039062 13.898438 -62.390625 12.203125 -62.390625 Z M 7.53125 -5.9375 L 7.53125 -56.96875 C 12.269531 -56.96875 15.023438 -56.703125 15.796875 -56.171875 C 16.578125 -55.640625 16.96875 -53.785156 16.96875 -50.609375 L 16.96875 0.421875 C 12.226562 0.421875 9.46875 0.15625 8.6875 -0.375 C 7.914062 -0.90625 7.53125 -2.757812 7.53125 -5.9375 Z M 7.53125 -5.9375 "/></g></g></g><g fill="#00c655" fill-opacity="1"><g transform="translate(218.260792, 281.511165)"><g><path d="M 23.984375 11.140625 C 26.734375 11.140625 28.5 10.660156 29.28125 9.703125 C 30.0625 8.753906 30.453125 7.34375 30.453125 5.46875 C 30.453125 3.59375 30.078125 2.335938 29.328125 1.703125 C 28.585938 1.066406 26.945312 0.75 24.40625 0.75 C 14.644531 0.75 8.929688 0.269531 7.265625 -0.6875 C 5.609375 -1.644531 4.78125 -4.988281 4.78125 -10.71875 C 4.78125 -14.601562 6.300781 -17.820312 9.34375 -20.375 C 7.707031 -21.851562 6.535156 -23.632812 5.828125 -25.71875 C 5.128906 -27.8125 4.78125 -30.734375 4.78125 -34.484375 C 4.78125 -38.234375 4.796875 -40.671875 4.828125 -41.796875 C 4.859375 -42.929688 4.925781 -44.378906 5.03125 -46.140625 C 5.144531 -47.910156 5.34375 -49.164062 5.625 -49.90625 C 5.90625 -50.65625 6.3125 -51.59375 6.84375 -52.71875 C 7.375 -53.851562 8.023438 -54.632812 8.796875 -55.0625 C 9.578125 -55.488281 10.535156 -55.945312 11.671875 -56.4375 C 13.503906 -57.289062 16.6875 -57.71875 21.21875 -57.71875 L 40.421875 -57.71875 C 40.421875 -54.320312 40.101562 -52.054688 39.46875 -50.921875 C 38.832031 -49.796875 37.554688 -49.160156 35.640625 -49.015625 C 36.921875 -46.253906 37.5625 -42.082031 37.5625 -36.5 L 37.5625 -31.71875 C 37.5625 -28.25 37.414062 -25.914062 37.125 -24.71875 C 36.84375 -23.519531 36.507812 -22.316406 36.125 -21.109375 C 35.738281 -19.910156 35.28125 -19.0625 34.75 -18.5625 C 34.21875 -18.070312 33.546875 -17.472656 32.734375 -16.765625 C 31.921875 -16.054688 30.984375 -15.5625 29.921875 -15.28125 C 26.878906 -14.644531 23.816406 -14.328125 20.734375 -14.328125 C 17.660156 -14.328125 15.734375 -14.113281 14.953125 -13.6875 C 14.179688 -13.257812 13.796875 -12.476562 13.796875 -11.34375 C 13.796875 -10.21875 13.972656 -9.515625 14.328125 -9.234375 C 15.097656 -8.597656 18.5625 -8.28125 24.71875 -8.28125 C 30.875 -8.28125 34.867188 -7.535156 36.703125 -6.046875 C 38.546875 -4.554688 39.46875 -0.96875 39.46875 4.71875 C 39.46875 10.414062 38.421875 14.359375 36.328125 16.546875 C 34.242188 18.742188 30.160156 19.84375 24.078125 19.84375 L 17.71875 19.84375 C 14.320312 19.84375 12.335938 19.503906 11.765625 18.828125 C 11.203125 18.160156 10.921875 15.84375 10.921875 11.875 Z M 26.203125 -24.875 C 27.191406 -26.039062 27.722656 -27.703125 27.796875 -29.859375 C 27.867188 -32.015625 27.90625 -34.207031 27.90625 -36.4375 C 27.90625 -38.664062 27.882812 -40.257812 27.84375 -41.21875 C 27.8125 -42.175781 27.6875 -43.269531 27.46875 -44.5 C 27.257812 -45.738281 26.941406 -46.570312 26.515625 -47 C 25.242188 -48.132812 23.242188 -48.703125 20.515625 -48.703125 C 17.796875 -48.703125 16.082031 -47.90625 15.375 -46.3125 C 14.675781 -44.71875 14.328125 -41.425781 14.328125 -36.4375 C 14.328125 -31.457031 14.734375 -27.992188 15.546875 -26.046875 C 16.359375 -24.097656 18.085938 -23.125 20.734375 -23.125 C 23.390625 -23.125 25.210938 -23.707031 26.203125 -24.875 Z M 26.203125 -24.875 "/></g></g></g><g fill="#00c655" fill-opacity="1"><g transform="translate(263.451878, 281.511165)"><g><path d="M 12.203125 -62.390625 C 10.503906 -62.390625 9.015625 -63.039062 7.734375 -64.34375 C 6.460938 -65.65625 5.828125 -67.175781 5.828125 -68.90625 C 5.828125 -70.632812 6.460938 -72.097656 7.734375 -73.296875 C 9.015625 -74.503906 10.503906 -75.109375 12.203125 -75.109375 C 13.898438 -75.109375 15.382812 -74.503906 16.65625 -73.296875 C 17.925781 -72.097656 18.5625 -70.632812 18.5625 -68.90625 C 18.5625 -67.175781 17.925781 -65.65625 16.65625 -64.34375 C 15.382812 -63.039062 13.898438 -62.390625 12.203125 -62.390625 Z M 7.53125 -5.9375 L 7.53125 -56.96875 C 12.269531 -56.96875 15.023438 -56.703125 15.796875 -56.171875 C 16.578125 -55.640625 16.96875 -53.785156 16.96875 -50.609375 L 16.96875 0.421875 C 12.226562 0.421875 9.46875 0.15625 8.6875 -0.375 C 7.914062 -0.90625 7.53125 -2.757812 7.53125 -5.9375 Z M 7.53125 -5.9375 "/></g></g></g><g fill="#00c655" fill-opacity="1"><g transform="translate(287.85083, 281.511165)"><g><path d="M 26.203125 -56.96875 C 26.203125 -52.9375 25.832031 -50.441406 25.09375 -49.484375 C 24.351562 -48.535156 22.175781 -48.0625 18.5625 -48.0625 L 15.484375 -48.0625 L 16.4375 -45.40625 L 16.4375 -24.40625 C 16.4375 -18.394531 16.664062 -14.273438 17.125 -12.046875 C 17.59375 -9.816406 18.566406 -8.5625 20.046875 -8.28125 L 28.109375 -8.28125 L 28.109375 0 L 19.515625 0.53125 C 15.984375 0.53125 13.648438 0.175781 12.515625 -0.53125 C 11.390625 -1.238281 10.539062 -1.800781 9.96875 -2.21875 C 9.40625 -2.644531 8.910156 -3.515625 8.484375 -4.828125 C 8.054688 -6.140625 7.738281 -7.203125 7.53125 -8.015625 C 7.320312 -8.828125 7.160156 -10.3125 7.046875 -12.46875 C 6.941406 -14.625 6.890625 -16.410156 6.890625 -17.828125 L 6.890625 -45.40625 L 7.75 -48.0625 L 2.125 -48.0625 L 2.125 -56.96875 L 7.75 -56.96875 L 6.890625 -60.890625 L 6.890625 -66.3125 C 11.628906 -66.3125 14.40625 -66.078125 15.21875 -65.609375 C 16.03125 -65.148438 16.4375 -63.472656 16.4375 -60.578125 L 15.59375 -56.96875 Z M 26.203125 -56.96875 "/></g></g></g><g fill="#00c655" fill-opacity="1"><g transform="translate(318.084308, 281.511165)"><g><path d="M 24.828125 -43.8125 L 24.9375 -46.6875 C 24.9375 -47.675781 24.828125 -48.203125 24.609375 -48.265625 C 24.398438 -48.335938 24.15625 -48.5 23.875 -48.75 C 23.59375 -49 23.21875 -49.050781 22.75 -48.90625 C 22.289062 -48.769531 21.742188 -48.734375 21.109375 -48.796875 L 15.390625 -48.0625 C 13.898438 -47.84375 12.625 -47.734375 11.5625 -47.734375 C 10.5 -47.734375 9.6875 -47.984375 9.125 -48.484375 C 8.5625 -48.984375 7.992188 -51.25 7.421875 -55.28125 L 19.734375 -57.71875 C 24.753906 -57.71875 27.898438 -57.34375 29.171875 -56.59375 C 30.441406 -55.851562 31.359375 -55.234375 31.921875 -54.734375 C 32.492188 -54.242188 32.882812 -53.257812 33.09375 -51.78125 C 33.445312 -49.9375 33.625 -47.035156 33.625 -43.078125 L 33.625 0 C 29.53125 0 26.953125 -0.207031 25.890625 -0.625 C 24.828125 -1.050781 24.257812 -2.082031 24.1875 -3.71875 L 15.390625 0.75 C 13.398438 0.75 11.925781 0.726562 10.96875 0.6875 C 10.019531 0.65625 9.066406 0.359375 8.109375 -0.203125 C 7.160156 -0.773438 6.523438 -1.34375 6.203125 -1.90625 C 5.890625 -2.476562 5.585938 -3.679688 5.296875 -5.515625 C 4.953125 -7.710938 4.78125 -12.203125 4.78125 -18.984375 L 4.78125 -26.3125 C 4.78125 -34.300781 11.742188 -38.4375 25.671875 -38.71875 L 24.828125 -41.265625 Z M 14.75 -8.28125 C 14.820312 -8.28125 18.394531 -9.625 25.46875 -12.3125 L 24.40625 -15.390625 L 24.40625 -28.015625 L 25.25 -30.453125 C 22.351562 -30.378906 19.804688 -30.09375 17.609375 -29.59375 C 15.421875 -29.101562 14.328125 -28.429688 14.328125 -27.578125 L 14.21875 -13.578125 C 14.21875 -10.046875 14.394531 -8.28125 14.75 -8.28125 Z M 14.75 -8.28125 "/></g></g></g><g fill="#00c655" fill-opacity="1"><g transform="translate(356.486123, 281.511165)"><g><path d="M 15.8125 -69.921875 L 15.8125 0.421875 C 11.070312 0.421875 8.3125 0.15625 7.53125 -0.375 C 6.75 -0.90625 6.359375 -2.757812 6.359375 -5.9375 L 6.359375 -76.390625 C 11.035156 -76.390625 13.78125 -76.125 14.59375 -75.59375 C 15.40625 -75.0625 15.8125 -73.171875 15.8125 -69.921875 Z M 15.8125 -69.921875 "/></g></g></g><g fill="#00c655" fill-opacity="1"><g transform="translate(142.942307, 379.961316)"><g><path d="M 39.671875 -9.4375 L 39.671875 0 L 6.359375 0 L 6.359375 -76.390625 L 38.625 -76.390625 L 38.625 -67.375 L 15.8125 -67.375 L 16.765625 -64.71875 L 16.765625 -48.484375 L 15.8125 -45.828125 L 37.34375 -45.828125 L 37.34375 -36.390625 L 15.90625 -36.390625 L 16.765625 -33.953125 L 16.765625 -12.09375 L 15.8125 -9.4375 Z M 39.671875 -9.4375 "/></g></g></g><g fill="#00c655" fill-opacity="1"><g transform="translate(185.799583, 379.961316)"><g><path d="M 29.171875 -28.328125 L 29.28125 -37.65625 C 29.28125 -40.488281 29.207031 -42.613281 29.0625 -44.03125 C 28.78125 -47 27.117188 -48.554688 24.078125 -48.703125 L 14.328125 -45.828125 L 15.28125 -42.859375 L 15.28125 0 C 10.539062 0 7.78125 -0.265625 7 -0.796875 C 6.21875 -1.328125 5.828125 -3.179688 5.828125 -6.359375 L 5.828125 -56.96875 C 9.929688 -56.96875 12.515625 -56.859375 13.578125 -56.640625 C 14.640625 -56.429688 15.207031 -55.800781 15.28125 -54.75 L 23.125 -57.71875 C 27.4375 -57.71875 30.265625 -57.429688 31.609375 -56.859375 C 32.953125 -56.296875 33.976562 -55.800781 34.6875 -55.375 C 35.394531 -54.957031 36.03125 -54.09375 36.59375 -52.78125 C 37.164062 -51.46875 37.554688 -50.265625 37.765625 -49.171875 C 37.984375 -48.078125 38.195312 -46.328125 38.40625 -43.921875 C 38.613281 -40.453125 38.71875 -35.21875 38.71875 -28.21875 L 38.71875 0 C 33.976562 0 31.203125 -0.265625 30.390625 -0.796875 C 29.578125 -1.328125 29.171875 -3.179688 29.171875 -6.359375 Z M 29.171875 -28.328125 "/></g></g></g><g fill="#00c655" fill-opacity="1"><g transform="translate(229.823764, 379.961316)"><g><path d="M 12.203125 -62.390625 C 10.503906 -62.390625 9.015625 -63.039062 7.734375 -64.34375 C 6.460938 -65.65625 5.828125 -67.175781 5.828125 -68.90625 C 5.828125 -70.632812 6.460938 -72.097656 7.734375 -73.296875 C 9.015625 -74.503906 10.503906 -75.109375 12.203125 -75.109375 C 13.898438 -75.109375 15.382812 -74.503906 16.65625 -73.296875 C 17.925781 -72.097656 18.5625 -70.632812 18.5625 -68.90625 C 18.5625 -67.175781 17.925781 -65.65625 16.65625 -64.34375 C 15.382812 -63.039062 13.898438 -62.390625 12.203125 -62.390625 Z M 7.53125 -5.9375 L 7.53125 -56.96875 C 12.269531 -56.96875 15.023438 -56.703125 15.796875 -56.171875 C 16.578125 -55.640625 16.96875 -53.785156 16.96875 -50.609375 L 16.96875 0.421875 C 12.226562 0.421875 9.46875 0.15625 8.6875 -0.375 C 7.914062 -0.90625 7.53125 -2.757812 7.53125 -5.9375 Z M 7.53125 -5.9375 "/></g></g></g><g fill="#00c655" fill-opacity="1"><g transform="translate(254.222716, 379.961316)"><g><path d="M 23.984375 11.140625 C 26.734375 11.140625 28.5 10.660156 29.28125 9.703125 C 30.0625 8.753906 30.453125 7.34375 30.453125 5.46875 C 30.453125 3.59375 30.078125 2.335938 29.328125 1.703125 C 28.585938 1.066406 26.945312 0.75 24.40625 0.75 C 14.644531 0.75 8.929688 0.269531 7.265625 -0.6875 C 5.609375 -1.644531 4.78125 -4.988281 4.78125 -10.71875 C 4.78125 -14.601562 6.300781 -17.820312 9.34375 -20.375 C 7.707031 -21.851562 6.535156 -23.632812 5.828125 -25.71875 C 5.128906 -27.8125 4.78125 -30.734375 4.78125 -34.484375 C 4.78125 -38.234375 4.796875 -40.671875 4.828125 -41.796875 C 4.859375 -42.929688 4.925781 -44.378906 5.03125 -46.140625 C 5.144531 -47.910156 5.34375 -49.164062 5.625 -49.90625 C 5.90625 -50.65625 6.3125 -51.59375 6.84375 -52.71875 C 7.375 -53.851562 8.023438 -54.632812 8.796875 -55.0625 C 9.578125 -55.488281 10.535156 -55.945312 11.671875 -56.4375 C 13.503906 -57.289062 16.6875 -57.71875 21.21875 -57.71875 L 40.421875 -57.71875 C 40.421875 -54.320312 40.101562 -52.054688 39.46875 -50.921875 C 38.832031 -49.796875 37.554688 -49.160156 35.640625 -49.015625 C 36.921875 -46.253906 37.5625 -42.082031 37.5625 -36.5 L 37.5625 -31.71875 C 37.5625 -28.25 37.414062 -25.914062 37.125 -24.71875 C 36.84375 -23.519531 36.507812 -22.316406 36.125 -21.109375 C 35.738281 -19.910156 35.28125 -19.0625 34.75 -18.5625 C 34.21875 -18.070312 33.546875 -17.472656 32.734375 -16.765625 C 31.921875 -16.054688 30.984375 -15.5625 29.921875 -15.28125 C 26.878906 -14.644531 23.816406 -14.328125 20.734375 -14.328125 C 17.660156 -14.328125 15.734375 -14.113281 14.953125 -13.6875 C 14.179688 -13.257812 13.796875 -12.476562 13.796875 -11.34375 C 13.796875 -10.21875 13.972656 -9.515625 14.328125 -9.234375 C 15.097656 -8.597656 18.5625 -8.28125 24.71875 -8.28125 C 30.875 -8.28125 34.867188 -7.535156 36.703125 -6.046875 C 38.546875 -4.554688 39.46875 -0.96875 39.46875 4.71875 C 39.46875 10.414062 38.421875 14.359375 36.328125 16.546875 C 34.242188 18.742188 30.160156 19.84375 24.078125 19.84375 L 17.71875 19.84375 C 14.320312 19.84375 12.335938 19.503906 11.765625 18.828125 C 11.203125 18.160156 10.921875 15.84375 10.921875 11.875 Z M 26.203125 -24.875 C 27.191406 -26.039062 27.722656 -27.703125 27.796875 -29.859375 C 27.867188 -32.015625 27.90625 -34.207031 27.90625 -36.4375 C 27.90625 -38.664062 27.882812 -40.257812 27.84375 -41.21875 C 27.8125 -42.175781 27.6875 -43.269531 27.46875 -44.5 C 27.257812 -45.738281 26.941406 -46.570312 26.515625 -47 C 25.242188 -48.132812 23.242188 -48.703125 20.515625 -48.703125 C 17.796875 -48.703125 16.082031 -47.90625 15.375 -46.3125 C 14.675781 -44.71875 14.328125 -41.425781 14.328125 -36.4375 C 14.328125 -31.457031 14.734375 -27.992188 15.546875 -26.046875 C 16.359375 -24.097656 18.085938 -23.125 20.734375 -23.125 C 23.390625 -23.125 25.210938 -23.707031 26.203125 -24.875 Z M 26.203125 -24.875 "/></g></g></g><g fill="#00c655" fill-opacity="1"><g transform="translate(299.413802, 379.961316)"><g><path d="M 37.5625 0 C 32.820312 0 30.0625 -0.265625 29.28125 -0.796875 C 28.5 -1.328125 28.109375 -3.179688 28.109375 -6.359375 L 28.015625 -32.359375 L 28.015625 -36.5 C 28.015625 -38.125 28.03125 -39.359375 28.0625 -40.203125 C 28.09375 -41.054688 28.070312 -42.03125 28 -43.125 C 27.9375 -44.21875 27.816406 -45.03125 27.640625 -45.5625 C 27.460938 -46.09375 27.234375 -46.644531 26.953125 -47.21875 C 26.453125 -48.207031 25.390625 -48.703125 23.765625 -48.703125 L 14.328125 -45.9375 L 15.28125 -42.859375 L 15.28125 0 C 10.539062 0 7.78125 -0.265625 7 -0.796875 C 6.21875 -1.328125 5.828125 -3.179688 5.828125 -6.359375 L 5.828125 -56.96875 C 9.722656 -56.96875 12.203125 -56.859375 13.265625 -56.640625 C 14.328125 -56.429688 14.960938 -55.800781 15.171875 -54.75 L 23.125 -57.71875 C 26.238281 -57.71875 28.609375 -57.453125 30.234375 -56.921875 C 31.859375 -56.390625 33.3125 -55.378906 34.59375 -53.890625 L 44.34375 -57.71875 C 48.519531 -57.71875 51.332031 -57.414062 52.78125 -56.8125 C 54.226562 -56.207031 55.285156 -55.691406 55.953125 -55.265625 C 56.628906 -54.847656 57.234375 -53.96875 57.765625 -52.625 C 58.296875 -51.28125 58.6875 -50.078125 58.9375 -49.015625 C 59.1875 -47.953125 59.378906 -46.179688 59.515625 -43.703125 C 59.734375 -40.023438 59.84375 -34.863281 59.84375 -28.21875 L 59.84375 0 C 55.03125 0 52.234375 -0.265625 51.453125 -0.796875 C 50.671875 -1.328125 50.28125 -3.179688 50.28125 -6.359375 L 50.28125 -28.328125 C 50.28125 -38.085938 50.175781 -43.535156 49.96875 -44.671875 C 49.613281 -46.710938 48.625 -47.945312 47 -48.375 C 46.4375 -48.519531 45.726562 -48.628906 44.875 -48.703125 L 36.609375 -46.25 L 37.5625 -43.28125 Z M 37.5625 0 "/></g></g></g><g fill="#00c655" fill-opacity="1"><g transform="translate(364.54838, 379.961316)"><g><path d="M 24.828125 -43.8125 L 24.9375 -46.6875 C 24.9375 -47.675781 24.828125 -48.203125 24.609375 -48.265625 C 24.398438 -48.335938 24.15625 -48.5 23.875 -48.75 C 23.59375 -49 23.21875 -49.050781 22.75 -48.90625 C 22.289062 -48.769531 21.742188 -48.734375 21.109375 -48.796875 L 15.390625 -48.0625 C 13.898438 -47.84375 12.625 -47.734375 11.5625 -47.734375 C 10.5 -47.734375 9.6875 -47.984375 9.125 -48.484375 C 8.5625 -48.984375 7.992188 -51.25 7.421875 -55.28125 L 19.734375 -57.71875 C 24.753906 -57.71875 27.898438 -57.34375 29.171875 -56.59375 C 30.441406 -55.851562 31.359375 -55.234375 31.921875 -54.734375 C 32.492188 -54.242188 32.882812 -53.257812 33.09375 -51.78125 C 33.445312 -49.9375 33.625 -47.035156 33.625 -43.078125 L 33.625 0 C 29.53125 0 26.953125 -0.207031 25.890625 -0.625 C 24.828125 -1.050781 24.257812 -2.082031 24.1875 -3.71875 L 15.390625 0.75 C 13.398438 0.75 11.925781 0.726562 10.96875 0.6875 C 10.019531 0.65625 9.066406 0.359375 8.109375 -0.203125 C 7.160156 -0.773438 6.523438 -1.34375 6.203125 -1.90625 C 5.890625 -2.476562 5.585938 -3.679688 5.296875 -5.515625 C 4.953125 -7.710938 4.78125 -12.203125 4.78125 -18.984375 L 4.78125 -26.3125 C 4.78125 -34.300781 11.742188 -38.4375 25.671875 -38.71875 L 24.828125 -41.265625 Z M 14.75 -8.28125 C 14.820312 -8.28125 18.394531 -9.625 25.46875 -12.3125 L 24.40625 -15.390625 L 24.40625 -28.015625 L 25.25 -30.453125 C 22.351562 -30.378906 19.804688 -30.09375 17.609375 -29.59375 C 15.421875 -29.101562 14.328125 -28.429688 14.328125 -27.578125 L 14.21875 -13.578125 C 14.21875 -10.046875 14.394531 -8.28125 14.75 -8.28125 Z M 14.75 -8.28125 "/></g></g></g><g fill="#00c655" fill-opacity="1"><g transform="translate(142.942307, 478.411466)"><g><path d="M 14.75 -54.84375 L 14.75 -6.46875 C 14.75 -3.21875 14.410156 -1.328125 13.734375 -0.796875 C 13.066406 -0.265625 10.859375 0 7.109375 0 L 4.78125 0 L 4.78125 -76.390625 L 7.21875 -76.390625 C 10.613281 -76.390625 12.734375 -76.140625 13.578125 -75.640625 C 14.429688 -75.148438 15.53125 -73.453125 16.875 -70.546875 L 28.4375 -44.140625 L 30.5625 -44.140625 L 44.765625 -76.390625 L 46.359375 -76.390625 C 50.179688 -76.390625 52.425781 -76.125 53.09375 -75.59375 C 53.769531 -75.0625 54.109375 -73.171875 54.109375 -69.921875 L 54.109375 0 L 51.78125 0 C 47.957031 0 45.726562 -0.265625 45.09375 -0.796875 C 44.457031 -1.328125 44.140625 -3.21875 44.140625 -6.46875 L 44.03125 -54.75 L 43.703125 -54.75 L 35.859375 -35.75 L 33 -30.453125 L 26 -30.453125 L 23.125 -35.75 L 15.0625 -54.84375 Z M 14.75 -54.84375 "/></g></g></g><g fill="#00c655" fill-opacity="1"><g transform="translate(201.924097, 478.411466)"><g><path d="M 24.828125 -43.8125 L 24.9375 -46.6875 C 24.9375 -47.675781 24.828125 -48.203125 24.609375 -48.265625 C 24.398438 -48.335938 24.15625 -48.5 23.875 -48.75 C 23.59375 -49 23.21875 -49.050781 22.75 -48.90625 C 22.289062 -48.769531 21.742188 -48.734375 21.109375 -48.796875 L 15.390625 -48.0625 C 13.898438 -47.84375 12.625 -47.734375 11.5625 -47.734375 C 10.5 -47.734375 9.6875 -47.984375 9.125 -48.484375 C 8.5625 -48.984375 7.992188 -51.25 7.421875 -55.28125 L 19.734375 -57.71875 C 24.753906 -57.71875 27.898438 -57.34375 29.171875 -56.59375 C 30.441406 -55.851562 31.359375 -55.234375 31.921875 -54.734375 C 32.492188 -54.242188 32.882812 -53.257812 33.09375 -51.78125 C 33.445312 -49.9375 33.625 -47.035156 33.625 -43.078125 L 33.625 0 C 29.53125 0 26.953125 -0.207031 25.890625 -0.625 C 24.828125 -1.050781 24.257812 -2.082031 24.1875 -3.71875 L 15.390625 0.75 C 13.398438 0.75 11.925781 0.726562 10.96875 0.6875 C 10.019531 0.65625 9.066406 0.359375 8.109375 -0.203125 C 7.160156 -0.773438 6.523438 -1.34375 6.203125 -1.90625 C 5.890625 -2.476562 5.585938 -3.679688 5.296875 -5.515625 C 4.953125 -7.710938 4.78125 -12.203125 4.78125 -18.984375 L 4.78125 -26.3125 C 4.78125 -34.300781 11.742188 -38.4375 25.671875 -38.71875 L 24.828125 -41.265625 Z M 14.75 -8.28125 C 14.820312 -8.28125 18.394531 -9.625 25.46875 -12.3125 L 24.40625 -15.390625 L 24.40625 -28.015625 L 25.25 -30.453125 C 22.351562 -30.378906 19.804688 -30.09375 17.609375 -29.59375 C 15.421875 -29.101562 14.328125 -28.429688 14.328125 -27.578125 L 14.21875 -13.578125 C 14.21875 -10.046875 14.394531 -8.28125 14.75 -8.28125 Z M 14.75 -8.28125 "/></g></g></g><g fill="#00c655" fill-opacity="1"><g transform="translate(240.325913, 478.411466)"><g><path d="M 3.8125 -9.34375 C 10.1875 -8.632812 14.394531 -8.28125 16.4375 -8.28125 C 18.488281 -8.28125 19.832031 -8.457031 20.46875 -8.8125 C 21.113281 -9.164062 21.59375 -9.535156 21.90625 -9.921875 C 22.226562 -10.304688 22.457031 -11.03125 22.59375 -12.09375 C 22.8125 -13.582031 22.921875 -15.457031 22.921875 -17.71875 C 22.921875 -19.414062 19.738281 -22.671875 13.375 -27.484375 C 10.96875 -29.242188 8.753906 -31.453125 6.734375 -34.109375 C 4.722656 -36.765625 3.71875 -39.257812 3.71875 -41.59375 C 3.71875 -43.925781 3.75 -45.65625 3.8125 -46.78125 C 3.882812 -47.914062 4.1875 -49.3125 4.71875 -50.96875 C 5.25 -52.632812 6.007812 -53.859375 7 -54.640625 C 9.757812 -56.691406 13.753906 -57.71875 18.984375 -57.71875 L 31.40625 -55.171875 C 30.84375 -51.066406 30.296875 -48.785156 29.765625 -48.328125 C 29.234375 -47.867188 28.414062 -47.640625 27.3125 -47.640625 C 26.21875 -47.640625 24.929688 -47.742188 23.453125 -47.953125 L 19.3125 -48.703125 C 16.40625 -48.703125 14.632812 -48.0625 14 -46.78125 C 13.507812 -45.789062 13.265625 -44.484375 13.265625 -42.859375 C 13.265625 -41.234375 14.289062 -39.5 16.34375 -37.65625 C 18.394531 -35.820312 20.675781 -34.054688 23.1875 -32.359375 C 25.695312 -30.660156 27.972656 -28.554688 30.015625 -26.046875 C 32.066406 -23.535156 33.09375 -21.039062 33.09375 -18.5625 C 33.09375 -16.09375 33.054688 -14.21875 32.984375 -12.9375 C 32.921875 -11.664062 32.625 -10.003906 32.09375 -7.953125 C 31.5625 -5.898438 30.800781 -4.34375 29.8125 -3.28125 C 28.820312 -2.226562 27.316406 -1.289062 25.296875 -0.46875 C 23.285156 0.34375 21.203125 0.75 19.046875 0.75 C 16.890625 0.75 15.050781 0.660156 13.53125 0.484375 C 12.007812 0.304688 10.238281 0.0390625 8.21875 -0.3125 C 6.207031 -0.664062 4.738281 -0.914062 3.8125 -1.0625 Z M 3.8125 -9.34375 "/></g></g></g><g fill="#00c655" fill-opacity="1"><g transform="translate(277.136501, 478.411466)"><g><path d="M 26.203125 -56.96875 C 26.203125 -52.9375 25.832031 -50.441406 25.09375 -49.484375 C 24.351562 -48.535156 22.175781 -48.0625 18.5625 -48.0625 L 15.484375 -48.0625 L 16.4375 -45.40625 L 16.4375 -24.40625 C 16.4375 -18.394531 16.664062 -14.273438 17.125 -12.046875 C 17.59375 -9.816406 18.566406 -8.5625 20.046875 -8.28125 L 28.109375 -8.28125 L 28.109375 0 L 19.515625 0.53125 C 15.984375 0.53125 13.648438 0.175781 12.515625 -0.53125 C 11.390625 -1.238281 10.539062 -1.800781 9.96875 -2.21875 C 9.40625 -2.644531 8.910156 -3.515625 8.484375 -4.828125 C 8.054688 -6.140625 7.738281 -7.203125 7.53125 -8.015625 C 7.320312 -8.828125 7.160156 -10.3125 7.046875 -12.46875 C 6.941406 -14.625 6.890625 -16.410156 6.890625 -17.828125 L 6.890625 -45.40625 L 7.75 -48.0625 L 2.125 -48.0625 L 2.125 -56.96875 L 7.75 -56.96875 L 6.890625 -60.890625 L 6.890625 -66.3125 C 11.628906 -66.3125 14.40625 -66.078125 15.21875 -65.609375 C 16.03125 -65.148438 16.4375 -63.472656 16.4375 -60.578125 L 15.59375 -56.96875 Z M 26.203125 -56.96875 "/></g></g></g><g fill="#00c655" fill-opacity="1"><g transform="translate(307.369979, 478.411466)"><g><path d="M 21.328125 -8.28125 C 26.140625 -8.28125 31.019531 -8.632812 35.96875 -9.34375 L 35.96875 -1.0625 C 29.382812 0.144531 24.710938 0.75 21.953125 0.75 C 19.203125 0.75 16.992188 0.550781 15.328125 0.15625 C 13.671875 -0.226562 12.238281 -0.6875 11.03125 -1.21875 C 9.832031 -1.75 8.84375 -2.648438 8.0625 -3.921875 C 7.28125 -5.191406 6.675781 -6.375 6.25 -7.46875 C 5.832031 -8.570312 5.515625 -10.253906 5.296875 -12.515625 C 5.015625 -15.554688 4.875 -18.789062 4.875 -22.21875 C 4.875 -25.65625 4.875 -28.539062 4.875 -30.875 L 4.875 -36.390625 C 4.875 -41.410156 5.015625 -44.539062 5.296875 -45.78125 C 5.585938 -47.019531 5.910156 -48.363281 6.265625 -49.8125 C 6.617188 -51.257812 7.078125 -52.285156 7.640625 -52.890625 C 8.203125 -53.492188 8.890625 -54.203125 9.703125 -55.015625 C 10.515625 -55.828125 11.453125 -56.375 12.515625 -56.65625 C 15.835938 -57.363281 18.804688 -57.71875 21.421875 -57.71875 C 24.046875 -57.71875 26.296875 -57.3125 28.171875 -56.5 C 30.046875 -55.6875 31.492188 -54.675781 32.515625 -53.46875 C 33.546875 -52.269531 34.34375 -50.570312 34.90625 -48.375 C 35.820312 -44.914062 36.28125 -40.390625 36.28125 -34.796875 L 36.609375 -27.578125 L 13.46875 -27.046875 L 14.328125 -24.609375 C 14.328125 -17.609375 14.660156 -13.132812 15.328125 -11.1875 C 16.003906 -9.25 18.003906 -8.28125 21.328125 -8.28125 Z M 26.84375 -38.515625 C 26.769531 -42.398438 26.394531 -45.066406 25.71875 -46.515625 C 25.050781 -47.972656 23.441406 -48.703125 20.890625 -48.703125 C 18.347656 -48.703125 16.707031 -48.0625 15.96875 -46.78125 C 15.226562 -45.507812 14.859375 -42.753906 14.859375 -38.515625 L 14 -36.171875 L 27.90625 -36.171875 Z M 26.84375 -38.515625 "/></g></g></g><g fill="#00c655" fill-opacity="1"><g transform="translate(347.575203, 478.411466)"><g><path d="M 15.390625 0 C 10.648438 0 7.867188 -0.265625 7.046875 -0.796875 C 6.234375 -1.328125 5.828125 -3.179688 5.828125 -6.359375 L 5.828125 -56.96875 C 10.503906 -56.96875 13.226562 -56.828125 14 -56.546875 C 14.78125 -56.265625 15.171875 -55.3125 15.171875 -53.6875 L 21.96875 -57.71875 C 24.007812 -57.71875 25.878906 -57.503906 27.578125 -57.078125 L 29.28125 -56.96875 C 29.28125 -52.9375 28.992188 -50.550781 28.421875 -49.8125 C 27.859375 -49.070312 26.054688 -48.703125 23.015625 -48.703125 L 14.328125 -45.71875 L 15.390625 -42.75 Z M 15.390625 0 "/></g></g></g><g fill="#00c655" fill-opacity="1"><g transform="translate(378.989959, 478.411466)"><g/></g></g><g fill="#00c655" fill-opacity="1"><g transform="translate(177.064742, 549.09729)"><g><path d="M 14.5 -3.453125 L 14.5 0 L 2.328125 0 L 2.328125 -27.921875 L 14.109375 -27.921875 L 14.109375 -24.625 L 5.78125 -24.625 L 6.125 -23.65625 L 6.125 -17.71875 L 5.78125 -16.75 L 13.65625 -16.75 L 13.65625 -13.296875 L 5.8125 -13.296875 L 6.125 -12.40625 L 6.125 -4.421875 L 5.78125 -3.453125 Z M 14.5 -3.453125 "/></g></g></g><g fill="#00c655" fill-opacity="1"><g transform="translate(192.728919, 549.09729)"><g><path d="M 13.1875 -20.40625 C 13.3125 -20.25 13.375 -20.101562 13.375 -19.96875 C 13.375 -19.84375 13.363281 -19.753906 13.34375 -19.703125 C 13.3125 -19.492188 13.21875 -19.03125 13.0625 -18.3125 L 9.34375 0 L 5.046875 0 L 0.78125 -20.828125 C 1.914062 -20.828125 2.710938 -20.765625 3.171875 -20.640625 C 3.640625 -20.523438 3.957031 -20.335938 4.125 -20.078125 C 4.289062 -19.828125 4.453125 -19.335938 4.609375 -18.609375 L 7.21875 -4.609375 L 7.328125 -4.609375 L 10.203125 -20.828125 C 11.960938 -20.828125 12.957031 -20.6875 13.1875 -20.40625 Z M 13.1875 -20.40625 "/></g></g></g><g fill="#00c655" fill-opacity="1"><g transform="translate(206.880947, 549.09729)"><g><path d="M 7.796875 -3.03125 C 9.554688 -3.03125 11.335938 -3.15625 13.140625 -3.40625 L 13.140625 -0.390625 C 10.742188 0.046875 9.039062 0.265625 8.03125 0.265625 C 7.019531 0.265625 6.207031 0.191406 5.59375 0.046875 C 4.988281 -0.0859375 4.46875 -0.25 4.03125 -0.4375 C 3.59375 -0.632812 3.226562 -0.96875 2.9375 -1.4375 C 2.65625 -1.90625 2.4375 -2.335938 2.28125 -2.734375 C 2.132812 -3.128906 2.019531 -3.742188 1.9375 -4.578125 C 1.832031 -5.691406 1.78125 -6.875 1.78125 -8.125 C 1.78125 -9.375 1.78125 -10.425781 1.78125 -11.28125 L 1.78125 -13.296875 C 1.78125 -15.140625 1.832031 -16.285156 1.9375 -16.734375 C 2.039062 -17.179688 2.15625 -17.671875 2.28125 -18.203125 C 2.414062 -18.734375 2.585938 -19.109375 2.796875 -19.328125 C 3.003906 -19.546875 3.253906 -19.800781 3.546875 -20.09375 C 3.847656 -20.394531 4.191406 -20.597656 4.578125 -20.703125 C 5.796875 -20.960938 6.878906 -21.09375 7.828125 -21.09375 C 8.785156 -21.09375 9.609375 -20.941406 10.296875 -20.640625 C 10.984375 -20.347656 11.515625 -19.984375 11.890625 -19.546875 C 12.265625 -19.109375 12.554688 -18.488281 12.765625 -17.6875 C 13.097656 -16.414062 13.265625 -14.757812 13.265625 -12.71875 L 13.375 -10.078125 L 4.921875 -9.890625 L 5.234375 -9 C 5.234375 -6.4375 5.351562 -4.800781 5.59375 -4.09375 C 5.84375 -3.382812 6.578125 -3.03125 7.796875 -3.03125 Z M 9.8125 -14.078125 C 9.78125 -15.492188 9.640625 -16.46875 9.390625 -17 C 9.148438 -17.53125 8.566406 -17.796875 7.640625 -17.796875 C 6.710938 -17.796875 6.109375 -17.5625 5.828125 -17.09375 C 5.554688 -16.632812 5.421875 -15.628906 5.421875 -14.078125 L 5.125 -13.21875 L 10.203125 -13.21875 Z M 9.8125 -14.078125 "/></g></g></g><g fill="#00c655" fill-opacity="1"><g transform="translate(221.5758, 549.09729)"><g><path d="M 5.625 0 C 3.894531 0 2.878906 -0.09375 2.578125 -0.28125 C 2.285156 -0.476562 2.140625 -1.160156 2.140625 -2.328125 L 2.140625 -20.828125 C 3.835938 -20.828125 4.828125 -20.773438 5.109375 -20.671875 C 5.398438 -20.566406 5.546875 -20.21875 5.546875 -19.625 L 8.03125 -21.09375 C 8.78125 -21.09375 9.460938 -21.015625 10.078125 -20.859375 L 10.703125 -20.828125 C 10.703125 -19.347656 10.597656 -18.472656 10.390625 -18.203125 C 10.179688 -17.929688 9.523438 -17.796875 8.421875 -17.796875 L 5.234375 -16.71875 L 5.625 -15.625 Z M 5.625 0 "/></g></g></g><g fill="#00c655" fill-opacity="1"><g transform="translate(233.052529, 549.09729)"><g><path d="M 1.546875 7.25 L 1.546875 4.453125 C 2.554688 4.453125 3.414062 4.132812 4.125 3.5 C 4.84375 2.875 5.203125 2.144531 5.203125 1.3125 C 5.203125 1.113281 5.1875 0.945312 5.15625 0.8125 L 0.78125 -20.828125 L 2.28125 -20.828125 C 3.0625 -20.828125 3.554688 -20.765625 3.765625 -20.640625 C 3.972656 -20.523438 4.144531 -20.363281 4.28125 -20.15625 C 4.425781 -19.957031 4.507812 -19.757812 4.53125 -19.5625 C 4.5625 -19.375 4.613281 -19.054688 4.6875 -18.609375 L 6.90625 -4.65625 L 7.484375 -4.65625 L 9.84375 -20.828125 C 11.21875 -20.828125 12.09375 -20.765625 12.46875 -20.640625 C 12.84375 -20.523438 13.03125 -20.171875 13.03125 -19.578125 L 8.921875 0.625 C 8.535156 2.6875 8.109375 4.054688 7.640625 4.734375 C 6.992188 5.640625 6.375 6.21875 5.78125 6.46875 C 4.4375 6.988281 3.023438 7.25 1.546875 7.25 Z M 1.546875 7.25 "/></g></g></g><g fill="#00c655" fill-opacity="1"><g transform="translate(246.855616, 549.09729)"><g/></g></g><g fill="#00c655" fill-opacity="1"><g transform="translate(254.222437, 549.09729)"><g><path d="M 13.65625 -16.75 L 13.65625 -13.296875 L 5.8125 -13.296875 L 6.125 -12.40625 L 6.125 0 L 5.15625 0 C 3.757812 0 2.9375 -0.09375 2.6875 -0.28125 C 2.445312 -0.476562 2.328125 -1.171875 2.328125 -2.359375 L 2.328125 -27.921875 L 14.109375 -27.921875 L 14.109375 -24.625 L 5.78125 -24.625 L 6.125 -23.65625 L 6.125 -17.71875 L 5.78125 -16.75 Z M 13.65625 -16.75 "/></g></g></g><g fill="#00c655" fill-opacity="1"><g transform="translate(269.498884, 549.09729)"><g><path d="M 5.625 0 C 3.894531 0 2.878906 -0.09375 2.578125 -0.28125 C 2.285156 -0.476562 2.140625 -1.160156 2.140625 -2.328125 L 2.140625 -20.828125 C 3.835938 -20.828125 4.828125 -20.773438 5.109375 -20.671875 C 5.398438 -20.566406 5.546875 -20.21875 5.546875 -19.625 L 8.03125 -21.09375 C 8.78125 -21.09375 9.460938 -21.015625 10.078125 -20.859375 L 10.703125 -20.828125 C 10.703125 -19.347656 10.597656 -18.472656 10.390625 -18.203125 C 10.179688 -17.929688 9.523438 -17.796875 8.421875 -17.796875 L 5.234375 -16.71875 L 5.625 -15.625 Z M 5.625 0 "/></g></g></g><g fill="#00c655" fill-opacity="1"><g transform="translate(280.975614, 549.09729)"><g><path d="M 4.453125 -22.796875 C 3.835938 -22.796875 3.296875 -23.035156 2.828125 -23.515625 C 2.367188 -23.992188 2.140625 -24.550781 2.140625 -25.1875 C 2.140625 -25.820312 2.367188 -26.359375 2.828125 -26.796875 C 3.296875 -27.234375 3.835938 -27.453125 4.453125 -27.453125 C 5.078125 -27.453125 5.617188 -27.234375 6.078125 -26.796875 C 6.546875 -26.359375 6.78125 -25.820312 6.78125 -25.1875 C 6.78125 -24.550781 6.546875 -23.992188 6.078125 -23.515625 C 5.617188 -23.035156 5.078125 -22.796875 4.453125 -22.796875 Z M 2.75 -2.171875 L 2.75 -20.828125 C 4.488281 -20.828125 5.5 -20.726562 5.78125 -20.53125 C 6.0625 -20.34375 6.203125 -19.664062 6.203125 -18.5 L 6.203125 0.15625 C 4.472656 0.15625 3.460938 0.0625 3.171875 -0.125 C 2.890625 -0.320312 2.75 -1.003906 2.75 -2.171875 Z M 2.75 -2.171875 "/></g></g></g><g fill="#00c655" fill-opacity="1"><g transform="translate(289.893333, 549.09729)"><g><path d="M 1.78125 -6.203125 C 1.757812 -7.054688 1.75 -8.4375 1.75 -10.34375 C 1.75 -12.257812 1.765625 -13.644531 1.796875 -14.5 C 1.835938 -15.351562 1.953125 -16.316406 2.140625 -17.390625 C 2.335938 -18.460938 2.660156 -19.207031 3.109375 -19.625 C 4.140625 -20.601562 5.726562 -21.09375 7.875 -21.09375 L 10.046875 -20.328125 L 10.046875 -27.921875 C 11.773438 -27.921875 12.78125 -27.820312 13.0625 -27.625 C 13.351562 -27.4375 13.5 -26.75 13.5 -25.5625 L 13.5 0 C 11.945312 0 10.988281 -0.0625 10.625 -0.1875 C 10.257812 -0.320312 10.066406 -0.695312 10.046875 -1.3125 L 7.671875 0.265625 C 5.628906 0.265625 4.082031 -0.207031 3.03125 -1.15625 C 2.332031 -1.8125 1.914062 -3.492188 1.78125 -6.203125 Z M 10.4375 -4.3125 L 10.046875 -5.546875 L 10.046875 -15.9375 L 10.390625 -17.03125 L 7.375 -17.796875 C 6.382812 -17.722656 5.773438 -17.179688 5.546875 -16.171875 C 5.316406 -15.160156 5.203125 -13.15625 5.203125 -10.15625 C 5.203125 -7.15625 5.316406 -5.269531 5.546875 -4.5 C 5.828125 -3.539062 6.445312 -3.050781 7.40625 -3.03125 Z M 10.4375 -4.3125 "/></g></g></g><g fill="#00c655" fill-opacity="1"><g transform="translate(305.518741, 549.09729)"><g><path d="M 9.078125 -16.015625 L 9.109375 -17.0625 C 9.109375 -17.425781 9.066406 -17.617188 8.984375 -17.640625 C 8.910156 -17.671875 8.820312 -17.726562 8.71875 -17.8125 C 8.625 -17.90625 8.488281 -17.925781 8.3125 -17.875 C 8.144531 -17.820312 7.945312 -17.8125 7.71875 -17.84375 L 5.625 -17.5625 C 5.082031 -17.488281 4.613281 -17.453125 4.21875 -17.453125 C 3.832031 -17.453125 3.535156 -17.539062 3.328125 -17.71875 C 3.128906 -17.90625 2.925781 -18.734375 2.71875 -20.203125 L 7.21875 -21.09375 C 9.050781 -21.09375 10.195312 -20.957031 10.65625 -20.6875 C 11.125 -20.414062 11.460938 -20.1875 11.671875 -20 C 11.878906 -19.820312 12.019531 -19.460938 12.09375 -18.921875 C 12.226562 -18.253906 12.296875 -17.195312 12.296875 -15.75 L 12.296875 0 C 10.796875 0 9.847656 -0.078125 9.453125 -0.234375 C 9.066406 -0.390625 8.863281 -0.765625 8.84375 -1.359375 L 5.625 0.265625 C 4.894531 0.265625 4.351562 0.257812 4 0.25 C 3.65625 0.238281 3.304688 0.128906 2.953125 -0.078125 C 2.609375 -0.285156 2.378906 -0.492188 2.265625 -0.703125 C 2.148438 -0.910156 2.039062 -1.347656 1.9375 -2.015625 C 1.8125 -2.816406 1.75 -4.457031 1.75 -6.9375 L 1.75 -9.625 C 1.75 -12.539062 4.296875 -14.050781 9.390625 -14.15625 L 9.078125 -15.078125 Z M 5.390625 -3.03125 C 5.410156 -3.03125 6.71875 -3.519531 9.3125 -4.5 L 8.921875 -5.625 L 8.921875 -10.234375 L 9.234375 -11.125 C 8.171875 -11.101562 7.238281 -11 6.4375 -10.8125 C 5.632812 -10.632812 5.234375 -10.390625 5.234375 -10.078125 L 5.203125 -4.96875 C 5.203125 -3.675781 5.265625 -3.03125 5.390625 -3.03125 Z M 5.390625 -3.03125 "/></g></g></g><g fill="#00c655" fill-opacity="1"><g transform="translate(319.554462, 549.09729)"><g><path d="M 1.546875 7.25 L 1.546875 4.453125 C 2.554688 4.453125 3.414062 4.132812 4.125 3.5 C 4.84375 2.875 5.203125 2.144531 5.203125 1.3125 C 5.203125 1.113281 5.1875 0.945312 5.15625 0.8125 L 0.78125 -20.828125 L 2.28125 -20.828125 C 3.0625 -20.828125 3.554688 -20.765625 3.765625 -20.640625 C 3.972656 -20.523438 4.144531 -20.363281 4.28125 -20.15625 C 4.425781 -19.957031 4.507812 -19.757812 4.53125 -19.5625 C 4.5625 -19.375 4.613281 -19.054688 4.6875 -18.609375 L 6.90625 -4.65625 L 7.484375 -4.65625 L 9.84375 -20.828125 C 11.21875 -20.828125 12.09375 -20.765625 12.46875 -20.640625 C 12.84375 -20.523438 13.03125 -20.171875 13.03125 -19.578125 L 8.921875 0.625 C 8.535156 2.6875 8.109375 4.054688 7.640625 4.734375 C 6.992188 5.640625 6.375 6.21875 5.78125 6.46875 C 4.4375 6.988281 3.023438 7.25 1.546875 7.25 Z M 1.546875 7.25 "/></g></g></g><g fill="#00c655" fill-opacity="1"><g transform="translate(333.357549, 549.09729)"><g/></g></g><g fill="#00c655" fill-opacity="1"><g transform="translate(340.724369, 549.09729)"><g><path d="M 9.078125 -16.015625 L 9.109375 -17.0625 C 9.109375 -17.425781 9.066406 -17.617188 8.984375 -17.640625 C 8.910156 -17.671875 8.820312 -17.726562 8.71875 -17.8125 C 8.625 -17.90625 8.488281 -17.925781 8.3125 -17.875 C 8.144531 -17.820312 7.945312 -17.8125 7.71875 -17.84375 L 5.625 -17.5625 C 5.082031 -17.488281 4.613281 -17.453125 4.21875 -17.453125 C 3.832031 -17.453125 3.535156 -17.539062 3.328125 -17.71875 C 3.128906 -17.90625 2.925781 -18.734375 2.71875 -20.203125 L 7.21875 -21.09375 C 9.050781 -21.09375 10.195312 -20.957031 10.65625 -20.6875 C 11.125 -20.414062 11.460938 -20.1875 11.671875 -20 C 11.878906 -19.820312 12.019531 -19.460938 12.09375 -18.921875 C 12.226562 -18.253906 12.296875 -17.195312 12.296875 -15.75 L 12.296875 0 C 10.796875 0 9.847656 -0.078125 9.453125 -0.234375 C 9.066406 -0.390625 8.863281 -0.765625 8.84375 -1.359375 L 5.625 0.265625 C 4.894531 0.265625 4.351562 0.257812 4 0.25 C 3.65625 0.238281 3.304688 0.128906 2.953125 -0.078125 C 2.609375 -0.285156 2.378906 -0.492188 2.265625 -0.703125 C 2.148438 -0.910156 2.039062 -1.347656 1.9375 -2.015625 C 1.8125 -2.816406 1.75 -4.457031 1.75 -6.9375 L 1.75 -9.625 C 1.75 -12.539062 4.296875 -14.050781 9.390625 -14.15625 L 9.078125 -15.078125 Z M 5.390625 -3.03125 C 5.410156 -3.03125 6.71875 -3.519531 9.3125 -4.5 L 8.921875 -5.625 L 8.921875 -10.234375 L 9.234375 -11.125 C 8.171875 -11.101562 7.238281 -11 6.4375 -10.8125 C 5.632812 -10.632812 5.234375 -10.390625 5.234375 -10.078125 L 5.203125 -4.96875 C 5.203125 -3.675781 5.265625 -3.03125 5.390625 -3.03125 Z M 5.390625 -3.03125 "/></g></g></g><g fill="#00c655" fill-opacity="1"><g transform="translate(354.76009, 549.09729)"><g/></g></g><g fill="#00c655" fill-opacity="1"><g transform="translate(362.126911, 549.09729)"><g><path d="M 9.46875 -20.828125 L 9.46875 -17.5625 L 5.578125 -17.5625 L 5.96875 -16.4375 L 5.96875 4.53125 C 5.945312 5.90625 5.800781 6.703125 5.53125 6.921875 C 5.257812 7.140625 4.253906 7.25 2.515625 7.25 L 2.5625 -16.4375 L 2.90625 -17.5625 L 0.78125 -17.5625 L 0.78125 -20.828125 L 2.90625 -20.828125 L 2.5625 -21.796875 L 2.5625 -23.734375 C 2.5625 -24.117188 2.597656 -24.601562 2.671875 -25.1875 C 2.753906 -25.769531 2.832031 -26.144531 2.90625 -26.3125 C 2.988281 -26.476562 3.164062 -26.707031 3.4375 -27 C 3.707031 -27.300781 3.96875 -27.476562 4.21875 -27.53125 C 4.476562 -27.582031 4.898438 -27.660156 5.484375 -27.765625 C 6.066406 -27.867188 6.644531 -27.921875 7.21875 -27.921875 L 9.546875 -27.921875 L 9.546875 -25.171875 C 7.785156 -25.171875 6.753906 -25.023438 6.453125 -24.734375 C 6.160156 -24.453125 6.015625 -23.445312 6.015625 -21.71875 L 5.625 -20.828125 Z M 9.46875 -20.828125 "/></g></g></g><g fill="#00c655" fill-opacity="1"><g transform="translate(372.285357, 549.09729)"><g><path d="M 5.625 0 C 3.894531 0 2.878906 -0.09375 2.578125 -0.28125 C 2.285156 -0.476562 2.140625 -1.160156 2.140625 -2.328125 L 2.140625 -20.828125 C 3.835938 -20.828125 4.828125 -20.773438 5.109375 -20.671875 C 5.398438 -20.566406 5.546875 -20.21875 5.546875 -19.625 L 8.03125 -21.09375 C 8.78125 -21.09375 9.460938 -21.015625 10.078125 -20.859375 L 10.703125 -20.828125 C 10.703125 -19.347656 10.597656 -18.472656 10.390625 -18.203125 C 10.179688 -17.929688 9.523438 -17.796875 8.421875 -17.796875 L 5.234375 -16.71875 L 5.625 -15.625 Z M 5.625 0 "/></g></g></g><g fill="#00c655" fill-opacity="1"><g transform="translate(383.762086, 549.09729)"><g><path d="M 7.796875 -3.03125 C 9.554688 -3.03125 11.335938 -3.15625 13.140625 -3.40625 L 13.140625 -0.390625 C 10.742188 0.046875 9.039062 0.265625 8.03125 0.265625 C 7.019531 0.265625 6.207031 0.191406 5.59375 0.046875 C 4.988281 -0.0859375 4.46875 -0.25 4.03125 -0.4375 C 3.59375 -0.632812 3.226562 -0.96875 2.9375 -1.4375 C 2.65625 -1.90625 2.4375 -2.335938 2.28125 -2.734375 C 2.132812 -3.128906 2.019531 -3.742188 1.9375 -4.578125 C 1.832031 -5.691406 1.78125 -6.875 1.78125 -8.125 C 1.78125 -9.375 1.78125 -10.425781 1.78125 -11.28125 L 1.78125 -13.296875 C 1.78125 -15.140625 1.832031 -16.285156 1.9375 -16.734375 C 2.039062 -17.179688 2.15625 -17.671875 2.28125 -18.203125 C 2.414062 -18.734375 2.585938 -19.109375 2.796875 -19.328125 C 3.003906 -19.546875 3.253906 -19.800781 3.546875 -20.09375 C 3.847656 -20.394531 4.191406 -20.597656 4.578125 -20.703125 C 5.796875 -20.960938 6.878906 -21.09375 7.828125 -21.09375 C 8.785156 -21.09375 9.609375 -20.941406 10.296875 -20.640625 C 10.984375 -20.347656 11.515625 -19.984375 11.890625 -19.546875 C 12.265625 -19.109375 12.554688 -18.488281 12.765625 -17.6875 C 13.097656 -16.414062 13.265625 -14.757812 13.265625 -12.71875 L 13.375 -10.078125 L 4.921875 -9.890625 L 5.234375 -9 C 5.234375 -6.4375 5.351562 -4.800781 5.59375 -4.09375 C 5.84375 -3.382812 6.578125 -3.03125 7.796875 -3.03125 Z M 9.8125 -14.078125 C 9.78125 -15.492188 9.640625 -16.46875 9.390625 -17 C 9.148438 -17.53125 8.566406 -17.796875 7.640625 -17.796875 C 6.710938 -17.796875 6.109375 -17.5625 5.828125 -17.09375 C 5.554688 -16.632812 5.421875 -15.628906 5.421875 -14.078125 L 5.125 -13.21875 L 10.203125 -13.21875 Z M 9.8125 -14.078125 "/></g></g></g><g fill="#00c655" fill-opacity="1"><g transform="translate(398.456939, 549.09729)"><g><path d="M 1.390625 -3.40625 C 3.722656 -3.15625 5.265625 -3.03125 6.015625 -3.03125 C 6.765625 -3.03125 7.253906 -3.09375 7.484375 -3.21875 C 7.710938 -3.34375 7.882812 -3.476562 8 -3.625 C 8.125 -3.769531 8.210938 -4.035156 8.265625 -4.421875 C 8.335938 -4.960938 8.375 -5.644531 8.375 -6.46875 C 8.375 -7.09375 7.210938 -8.285156 4.890625 -10.046875 C 4.003906 -10.691406 3.191406 -11.5 2.453125 -12.46875 C 1.722656 -13.4375 1.359375 -14.347656 1.359375 -15.203125 C 1.359375 -16.054688 1.367188 -16.6875 1.390625 -17.09375 C 1.421875 -17.507812 1.53125 -18.019531 1.71875 -18.625 C 1.914062 -19.238281 2.195312 -19.6875 2.5625 -19.96875 C 3.570312 -20.71875 5.03125 -21.09375 6.9375 -21.09375 L 11.484375 -20.171875 C 11.273438 -18.671875 11.070312 -17.832031 10.875 -17.65625 C 10.6875 -17.488281 10.390625 -17.40625 9.984375 -17.40625 C 9.585938 -17.40625 9.117188 -17.445312 8.578125 -17.53125 L 7.0625 -17.796875 C 6 -17.796875 5.351562 -17.566406 5.125 -17.109375 C 4.9375 -16.742188 4.84375 -16.265625 4.84375 -15.671875 C 4.84375 -15.078125 5.21875 -14.441406 5.96875 -13.765625 C 6.71875 -13.097656 7.550781 -12.453125 8.46875 -11.828125 C 9.382812 -11.203125 10.21875 -10.429688 10.96875 -9.515625 C 11.71875 -8.597656 12.09375 -7.6875 12.09375 -6.78125 C 12.09375 -5.875 12.078125 -5.1875 12.046875 -4.71875 C 12.023438 -4.257812 11.914062 -3.65625 11.71875 -2.90625 C 11.53125 -2.15625 11.253906 -1.585938 10.890625 -1.203125 C 10.535156 -0.816406 9.988281 -0.472656 9.25 -0.171875 C 8.507812 0.117188 7.742188 0.265625 6.953125 0.265625 C 6.171875 0.265625 5.5 0.234375 4.9375 0.171875 C 4.382812 0.109375 3.738281 0.015625 3 -0.109375 C 2.269531 -0.242188 1.734375 -0.335938 1.390625 -0.390625 Z M 1.390625 -3.40625 "/></g></g></g><g fill="#00c655" fill-opacity="1"><g transform="translate(411.911066, 549.09729)"><g><path d="M 5.78125 -2.328125 C 5.78125 -1.160156 5.632812 -0.476562 5.34375 -0.28125 C 5.0625 -0.09375 4.054688 0 2.328125 0 L 2.328125 -27.921875 C 4.035156 -27.921875 5.03125 -27.820312 5.3125 -27.625 C 5.59375 -27.4375 5.734375 -26.75 5.734375 -25.5625 L 5.734375 -20.046875 L 8.765625 -21.09375 C 11.378906 -21.09375 12.96875 -20.378906 13.53125 -18.953125 C 14.101562 -17.535156 14.390625 -14.65625 14.390625 -10.3125 L 14.390625 0 C 12.660156 0 11.644531 -0.09375 11.34375 -0.28125 C 11.039062 -0.476562 10.890625 -1.160156 10.890625 -2.328125 L 10.890625 -10.359375 C 10.890625 -12.785156 10.828125 -14.484375 10.703125 -15.453125 C 10.578125 -16.421875 10.375 -17.046875 10.09375 -17.328125 C 9.820312 -17.617188 9.457031 -17.773438 9 -17.796875 L 5.421875 -16.75 L 5.78125 -15.671875 Z M 5.78125 -2.328125 "/></g></g></g><g fill="#00c655" fill-opacity="1"><g transform="translate(177.064742, 593.273639)"><g><path d="M 5.234375 -13.953125 C 5.210938 -13.285156 5.203125 -12.132812 5.203125 -10.5 C 5.203125 -8.875 5.210938 -7.71875 5.234375 -7.03125 C 5.265625 -6.351562 5.347656 -5.628906 5.484375 -4.859375 C 5.628906 -4.097656 5.863281 -3.601562 6.1875 -3.375 C 6.507812 -3.144531 6.9375 -3.03125 7.46875 -3.03125 C 8 -3.03125 8.488281 -3.070312 8.9375 -3.15625 C 9.394531 -3.25 9.894531 -3.363281 10.4375 -3.5 C 10.976562 -3.644531 11.429688 -3.742188 11.796875 -3.796875 L 11.796875 -0.78125 C 11.554688 -0.726562 10.945312 -0.539062 9.96875 -0.21875 C 8.988281 0.101562 8.179688 0.265625 7.546875 0.265625 C 6.910156 0.265625 6.335938 0.21875 5.828125 0.125 C 5.328125 0.0390625 4.875 -0.0546875 4.46875 -0.171875 C 4.070312 -0.285156 3.734375 -0.503906 3.453125 -0.828125 C 3.171875 -1.148438 2.929688 -1.425781 2.734375 -1.65625 C 2.535156 -1.894531 2.375 -2.296875 2.25 -2.859375 C 2.125 -3.429688 2.023438 -3.898438 1.953125 -4.265625 C 1.890625 -4.628906 1.835938 -5.226562 1.796875 -6.0625 C 1.765625 -6.90625 1.75 -7.570312 1.75 -8.0625 L 1.75 -12.875 C 1.75 -14.632812 1.800781 -15.789062 1.90625 -16.34375 C 2.007812 -16.90625 2.125 -17.46875 2.25 -18.03125 C 2.375 -18.601562 2.535156 -19 2.734375 -19.21875 C 2.929688 -19.4375 3.171875 -19.695312 3.453125 -20 C 3.734375 -20.3125 4.082031 -20.519531 4.5 -20.625 C 5.507812 -20.9375 6.53125 -21.09375 7.5625 -21.09375 L 11.9375 -20.171875 C 11.738281 -18.691406 11.535156 -17.859375 11.328125 -17.671875 C 11.117188 -17.492188 10.816406 -17.40625 10.421875 -17.40625 C 10.035156 -17.40625 9.570312 -17.445312 9.03125 -17.53125 L 7.5625 -17.796875 C 6.96875 -17.796875 6.507812 -17.691406 6.1875 -17.484375 C 5.863281 -17.285156 5.628906 -16.816406 5.484375 -16.078125 C 5.347656 -15.335938 5.265625 -14.628906 5.234375 -13.953125 Z M 5.234375 -13.953125 "/></g></g></g><g fill="#00c655" fill-opacity="1"><g transform="translate(190.014832, 593.273639)"><g><path d="M 5.78125 -2.328125 C 5.78125 -1.160156 5.632812 -0.476562 5.34375 -0.28125 C 5.0625 -0.09375 4.054688 0 2.328125 0 L 2.328125 -27.921875 C 4.035156 -27.921875 5.03125 -27.820312 5.3125 -27.625 C 5.59375 -27.4375 5.734375 -26.75 5.734375 -25.5625 L 5.734375 -20.046875 L 8.765625 -21.09375 C 11.378906 -21.09375 12.96875 -20.378906 13.53125 -18.953125 C 14.101562 -17.535156 14.390625 -14.65625 14.390625 -10.3125 L 14.390625 0 C 12.660156 0 11.644531 -0.09375 11.34375 -0.28125 C 11.039062 -0.476562 10.890625 -1.160156 10.890625 -2.328125 L 10.890625 -10.359375 C 10.890625 -12.785156 10.828125 -14.484375 10.703125 -15.453125 C 10.578125 -16.421875 10.375 -17.046875 10.09375 -17.328125 C 9.820312 -17.617188 9.457031 -17.773438 9 -17.796875 L 5.421875 -16.75 L 5.78125 -15.671875 Z M 5.78125 -2.328125 "/></g></g></g><g fill="#00c655" fill-opacity="1"><g transform="translate(206.338141, 593.273639)"><g><path d="M 9.078125 -16.015625 L 9.109375 -17.0625 C 9.109375 -17.425781 9.066406 -17.617188 8.984375 -17.640625 C 8.910156 -17.671875 8.820312 -17.726562 8.71875 -17.8125 C 8.625 -17.90625 8.488281 -17.925781 8.3125 -17.875 C 8.144531 -17.820312 7.945312 -17.8125 7.71875 -17.84375 L 5.625 -17.5625 C 5.082031 -17.488281 4.613281 -17.453125 4.21875 -17.453125 C 3.832031 -17.453125 3.535156 -17.539062 3.328125 -17.71875 C 3.128906 -17.90625 2.925781 -18.734375 2.71875 -20.203125 L 7.21875 -21.09375 C 9.050781 -21.09375 10.195312 -20.957031 10.65625 -20.6875 C 11.125 -20.414062 11.460938 -20.1875 11.671875 -20 C 11.878906 -19.820312 12.019531 -19.460938 12.09375 -18.921875 C 12.226562 -18.253906 12.296875 -17.195312 12.296875 -15.75 L 12.296875 0 C 10.796875 0 9.847656 -0.078125 9.453125 -0.234375 C 9.066406 -0.390625 8.863281 -0.765625 8.84375 -1.359375 L 5.625 0.265625 C 4.894531 0.265625 4.351562 0.257812 4 0.25 C 3.65625 0.238281 3.304688 0.128906 2.953125 -0.078125 C 2.609375 -0.285156 2.378906 -0.492188 2.265625 -0.703125 C 2.148438 -0.910156 2.039062 -1.347656 1.9375 -2.015625 C 1.8125 -2.816406 1.75 -4.457031 1.75 -6.9375 L 1.75 -9.625 C 1.75 -12.539062 4.296875 -14.050781 9.390625 -14.15625 L 9.078125 -15.078125 Z M 5.390625 -3.03125 C 5.410156 -3.03125 6.71875 -3.519531 9.3125 -4.5 L 8.921875 -5.625 L 8.921875 -10.234375 L 9.234375 -11.125 C 8.171875 -11.101562 7.238281 -11 6.4375 -10.8125 C 5.632812 -10.632812 5.234375 -10.390625 5.234375 -10.078125 L 5.203125 -4.96875 C 5.203125 -3.675781 5.265625 -3.03125 5.390625 -3.03125 Z M 5.390625 -3.03125 "/></g></g></g><g fill="#00c655" fill-opacity="1"><g transform="translate(220.373862, 593.273639)"><g><path d="M 5.78125 -25.5625 L 5.78125 0.15625 C 4.050781 0.15625 3.039062 0.0625 2.75 -0.125 C 2.46875 -0.320312 2.328125 -1.003906 2.328125 -2.171875 L 2.328125 -27.921875 C 4.035156 -27.921875 5.035156 -27.820312 5.328125 -27.625 C 5.628906 -27.4375 5.78125 -26.75 5.78125 -25.5625 Z M 5.78125 -25.5625 "/></g></g></g><g fill="#00c655" fill-opacity="1"><g transform="translate(228.089623, 593.273639)"><g><path d="M 5.78125 -25.5625 L 5.78125 0.15625 C 4.050781 0.15625 3.039062 0.0625 2.75 -0.125 C 2.46875 -0.320312 2.328125 -1.003906 2.328125 -2.171875 L 2.328125 -27.921875 C 4.035156 -27.921875 5.035156 -27.820312 5.328125 -27.625 C 5.628906 -27.4375 5.78125 -26.75 5.78125 -25.5625 Z M 5.78125 -25.5625 "/></g></g></g><g fill="#00c655" fill-opacity="1"><g transform="translate(235.805385, 593.273639)"><g><path d="M 7.796875 -3.03125 C 9.554688 -3.03125 11.335938 -3.15625 13.140625 -3.40625 L 13.140625 -0.390625 C 10.742188 0.046875 9.039062 0.265625 8.03125 0.265625 C 7.019531 0.265625 6.207031 0.191406 5.59375 0.046875 C 4.988281 -0.0859375 4.46875 -0.25 4.03125 -0.4375 C 3.59375 -0.632812 3.226562 -0.96875 2.9375 -1.4375 C 2.65625 -1.90625 2.4375 -2.335938 2.28125 -2.734375 C 2.132812 -3.128906 2.019531 -3.742188 1.9375 -4.578125 C 1.832031 -5.691406 1.78125 -6.875 1.78125 -8.125 C 1.78125 -9.375 1.78125 -10.425781 1.78125 -11.28125 L 1.78125 -13.296875 C 1.78125 -15.140625 1.832031 -16.285156 1.9375 -16.734375 C 2.039062 -17.179688 2.15625 -17.671875 2.28125 -18.203125 C 2.414062 -18.734375 2.585938 -19.109375 2.796875 -19.328125 C 3.003906 -19.546875 3.253906 -19.800781 3.546875 -20.09375 C 3.847656 -20.394531 4.191406 -20.597656 4.578125 -20.703125 C 5.796875 -20.960938 6.878906 -21.09375 7.828125 -21.09375 C 8.785156 -21.09375 9.609375 -20.941406 10.296875 -20.640625 C 10.984375 -20.347656 11.515625 -19.984375 11.890625 -19.546875 C 12.265625 -19.109375 12.554688 -18.488281 12.765625 -17.6875 C 13.097656 -16.414062 13.265625 -14.757812 13.265625 -12.71875 L 13.375 -10.078125 L 4.921875 -9.890625 L 5.234375 -9 C 5.234375 -6.4375 5.351562 -4.800781 5.59375 -4.09375 C 5.84375 -3.382812 6.578125 -3.03125 7.796875 -3.03125 Z M 9.8125 -14.078125 C 9.78125 -15.492188 9.640625 -16.46875 9.390625 -17 C 9.148438 -17.53125 8.566406 -17.796875 7.640625 -17.796875 C 6.710938 -17.796875 6.109375 -17.5625 5.828125 -17.09375 C 5.554688 -16.632812 5.421875 -15.628906 5.421875 -14.078125 L 5.125 -13.21875 L 10.203125 -13.21875 Z M 9.8125 -14.078125 "/></g></g></g><g fill="#00c655" fill-opacity="1"><g transform="translate(250.500238, 593.273639)"><g><path d="M 10.671875 -10.359375 L 10.703125 -13.765625 C 10.703125 -14.796875 10.675781 -15.570312 10.625 -16.09375 C 10.519531 -17.175781 9.910156 -17.742188 8.796875 -17.796875 L 5.234375 -16.75 L 5.578125 -15.671875 L 5.578125 0 C 3.847656 0 2.84375 -0.09375 2.5625 -0.28125 C 2.28125 -0.476562 2.140625 -1.160156 2.140625 -2.328125 L 2.140625 -20.828125 C 3.628906 -20.828125 4.566406 -20.785156 4.953125 -20.703125 C 5.347656 -20.628906 5.554688 -20.398438 5.578125 -20.015625 L 8.453125 -21.09375 C 10.023438 -21.09375 11.054688 -20.988281 11.546875 -20.78125 C 12.046875 -20.570312 12.421875 -20.390625 12.671875 -20.234375 C 12.929688 -20.085938 13.164062 -19.773438 13.375 -19.296875 C 13.582031 -18.816406 13.722656 -18.375 13.796875 -17.96875 C 13.878906 -17.570312 13.957031 -16.9375 14.03125 -16.0625 C 14.113281 -14.789062 14.15625 -12.875 14.15625 -10.3125 L 14.15625 0 C 12.425781 0 11.410156 -0.09375 11.109375 -0.28125 C 10.816406 -0.476562 10.671875 -1.160156 10.671875 -2.328125 Z M 10.671875 -10.359375 "/></g></g></g><g fill="#00c655" fill-opacity="1"><g transform="translate(266.590914, 593.273639)"><g><path d="M 8.765625 4.078125 C 9.773438 4.078125 10.421875 3.898438 10.703125 3.546875 C 10.984375 3.203125 11.125 2.6875 11.125 2 C 11.125 1.3125 10.988281 0.847656 10.71875 0.609375 C 10.445312 0.378906 9.847656 0.265625 8.921875 0.265625 C 5.347656 0.265625 3.257812 0.09375 2.65625 -0.25 C 2.050781 -0.601562 1.75 -1.828125 1.75 -3.921875 C 1.75 -5.335938 2.300781 -6.515625 3.40625 -7.453125 C 2.8125 -7.992188 2.382812 -8.644531 2.125 -9.40625 C 1.875 -10.164062 1.75 -11.226562 1.75 -12.59375 C 1.75 -13.96875 1.753906 -14.863281 1.765625 -15.28125 C 1.773438 -15.695312 1.800781 -16.226562 1.84375 -16.875 C 1.882812 -17.519531 1.953125 -17.976562 2.046875 -18.25 C 2.148438 -18.519531 2.300781 -18.859375 2.5 -19.265625 C 2.695312 -19.679688 2.9375 -19.96875 3.21875 -20.125 C 3.5 -20.28125 3.847656 -20.445312 4.265625 -20.625 C 4.941406 -20.9375 6.101562 -21.09375 7.75 -21.09375 L 14.78125 -21.09375 C 14.78125 -19.851562 14.660156 -19.023438 14.421875 -18.609375 C 14.191406 -18.203125 13.726562 -17.972656 13.03125 -17.921875 C 13.5 -16.910156 13.734375 -15.382812 13.734375 -13.34375 L 13.734375 -11.59375 C 13.734375 -10.320312 13.679688 -9.46875 13.578125 -9.03125 C 13.472656 -8.59375 13.347656 -8.15625 13.203125 -7.71875 C 13.054688 -7.28125 12.882812 -6.96875 12.6875 -6.78125 C 12.5 -6.601562 12.253906 -6.382812 11.953125 -6.125 C 11.660156 -5.863281 11.320312 -5.679688 10.9375 -5.578125 C 9.820312 -5.347656 8.703125 -5.234375 7.578125 -5.234375 C 6.453125 -5.234375 5.75 -5.15625 5.46875 -5 C 5.1875 -4.84375 5.046875 -4.554688 5.046875 -4.140625 C 5.046875 -3.734375 5.109375 -3.476562 5.234375 -3.375 C 5.515625 -3.144531 6.78125 -3.03125 9.03125 -3.03125 C 11.28125 -3.03125 12.738281 -2.753906 13.40625 -2.203125 C 14.082031 -1.660156 14.421875 -0.351562 14.421875 1.71875 C 14.421875 3.800781 14.039062 5.242188 13.28125 6.046875 C 12.519531 6.847656 11.023438 7.25 8.796875 7.25 L 6.46875 7.25 C 5.226562 7.25 4.503906 7.125 4.296875 6.875 C 4.097656 6.632812 4 5.789062 4 4.34375 Z M 9.578125 -9.09375 C 9.941406 -9.519531 10.132812 -10.125 10.15625 -10.90625 C 10.1875 -11.695312 10.203125 -12.5 10.203125 -13.3125 C 10.203125 -14.132812 10.191406 -14.71875 10.171875 -15.0625 C 10.160156 -15.414062 10.113281 -15.816406 10.03125 -16.265625 C 9.957031 -16.722656 9.84375 -17.03125 9.6875 -17.1875 C 9.226562 -17.59375 8.5 -17.796875 7.5 -17.796875 C 6.507812 -17.796875 5.882812 -17.503906 5.625 -16.921875 C 5.363281 -16.347656 5.234375 -15.148438 5.234375 -13.328125 C 5.234375 -11.503906 5.378906 -10.234375 5.671875 -9.515625 C 5.972656 -8.804688 6.609375 -8.453125 7.578125 -8.453125 C 8.546875 -8.453125 9.210938 -8.664062 9.578125 -9.09375 Z M 9.578125 -9.09375 "/></g></g></g><g fill="#00c655" fill-opacity="1"><g transform="translate(283.108088, 593.273639)"><g><path d="M 7.796875 -3.03125 C 9.554688 -3.03125 11.335938 -3.15625 13.140625 -3.40625 L 13.140625 -0.390625 C 10.742188 0.046875 9.039062 0.265625 8.03125 0.265625 C 7.019531 0.265625 6.207031 0.191406 5.59375 0.046875 C 4.988281 -0.0859375 4.46875 -0.25 4.03125 -0.4375 C 3.59375 -0.632812 3.226562 -0.96875 2.9375 -1.4375 C 2.65625 -1.90625 2.4375 -2.335938 2.28125 -2.734375 C 2.132812 -3.128906 2.019531 -3.742188 1.9375 -4.578125 C 1.832031 -5.691406 1.78125 -6.875 1.78125 -8.125 C 1.78125 -9.375 1.78125 -10.425781 1.78125 -11.28125 L 1.78125 -13.296875 C 1.78125 -15.140625 1.832031 -16.285156 1.9375 -16.734375 C 2.039062 -17.179688 2.15625 -17.671875 2.28125 -18.203125 C 2.414062 -18.734375 2.585938 -19.109375 2.796875 -19.328125 C 3.003906 -19.546875 3.253906 -19.800781 3.546875 -20.09375 C 3.847656 -20.394531 4.191406 -20.597656 4.578125 -20.703125 C 5.796875 -20.960938 6.878906 -21.09375 7.828125 -21.09375 C 8.785156 -21.09375 9.609375 -20.941406 10.296875 -20.640625 C 10.984375 -20.347656 11.515625 -19.984375 11.890625 -19.546875 C 12.265625 -19.109375 12.554688 -18.488281 12.765625 -17.6875 C 13.097656 -16.414062 13.265625 -14.757812 13.265625 -12.71875 L 13.375 -10.078125 L 4.921875 -9.890625 L 5.234375 -9 C 5.234375 -6.4375 5.351562 -4.800781 5.59375 -4.09375 C 5.84375 -3.382812 6.578125 -3.03125 7.796875 -3.03125 Z M 9.8125 -14.078125 C 9.78125 -15.492188 9.640625 -16.46875 9.390625 -17 C 9.148438 -17.53125 8.566406 -17.796875 7.640625 -17.796875 C 6.710938 -17.796875 6.109375 -17.5625 5.828125 -17.09375 C 5.554688 -16.632812 5.421875 -15.628906 5.421875 -14.078125 L 5.125 -13.21875 L 10.203125 -13.21875 Z M 9.8125 -14.078125 "/></g></g></g><g fill="#00c655" fill-opacity="1"><g transform="translate(297.802941, 593.273639)"><g/></g></g><g fill="#00c655" fill-opacity="1"><g transform="translate(305.169761, 593.273639)"><g><path d="M 9.078125 -16.015625 L 9.109375 -17.0625 C 9.109375 -17.425781 9.066406 -17.617188 8.984375 -17.640625 C 8.910156 -17.671875 8.820312 -17.726562 8.71875 -17.8125 C 8.625 -17.90625 8.488281 -17.925781 8.3125 -17.875 C 8.144531 -17.820312 7.945312 -17.8125 7.71875 -17.84375 L 5.625 -17.5625 C 5.082031 -17.488281 4.613281 -17.453125 4.21875 -17.453125 C 3.832031 -17.453125 3.535156 -17.539062 3.328125 -17.71875 C 3.128906 -17.90625 2.925781 -18.734375 2.71875 -20.203125 L 7.21875 -21.09375 C 9.050781 -21.09375 10.195312 -20.957031 10.65625 -20.6875 C 11.125 -20.414062 11.460938 -20.1875 11.671875 -20 C 11.878906 -19.820312 12.019531 -19.460938 12.09375 -18.921875 C 12.226562 -18.253906 12.296875 -17.195312 12.296875 -15.75 L 12.296875 0 C 10.796875 0 9.847656 -0.078125 9.453125 -0.234375 C 9.066406 -0.390625 8.863281 -0.765625 8.84375 -1.359375 L 5.625 0.265625 C 4.894531 0.265625 4.351562 0.257812 4 0.25 C 3.65625 0.238281 3.304688 0.128906 2.953125 -0.078125 C 2.609375 -0.285156 2.378906 -0.492188 2.265625 -0.703125 C 2.148438 -0.910156 2.039062 -1.347656 1.9375 -2.015625 C 1.8125 -2.816406 1.75 -4.457031 1.75 -6.9375 L 1.75 -9.625 C 1.75 -12.539062 4.296875 -14.050781 9.390625 -14.15625 L 9.078125 -15.078125 Z M 5.390625 -3.03125 C 5.410156 -3.03125 6.71875 -3.519531 9.3125 -4.5 L 8.921875 -5.625 L 8.921875 -10.234375 L 9.234375 -11.125 C 8.171875 -11.101562 7.238281 -11 6.4375 -10.8125 C 5.632812 -10.632812 5.234375 -10.390625 5.234375 -10.078125 L 5.203125 -4.96875 C 5.203125 -3.675781 5.265625 -3.03125 5.390625 -3.03125 Z M 5.390625 -3.03125 "/></g></g></g><g fill="#00c655" fill-opacity="1"><g transform="translate(319.205482, 593.273639)"><g><path d="M 20.78125 -20.40625 C 20.863281 -20.269531 20.90625 -20.117188 20.90625 -19.953125 C 20.90625 -19.785156 20.828125 -19.300781 20.671875 -18.5 L 17.0625 0 L 12.765625 0 L 11.015625 -13.1875 L 9.265625 0 L 4.921875 0 L 0.78125 -20.828125 C 2.53125 -20.828125 3.566406 -20.734375 3.890625 -20.546875 C 4.210938 -20.367188 4.476562 -19.722656 4.6875 -18.609375 L 7.015625 -5.15625 L 7.140625 -5.15625 L 8.796875 -16.09375 L 9.546875 -18.890625 L 12.5625 -18.890625 L 13.265625 -16.0625 L 15.015625 -5.125 L 15.125 -5.125 L 17.796875 -20.828125 C 19.578125 -20.828125 20.570312 -20.6875 20.78125 -20.40625 Z M 20.78125 -20.40625 "/></g></g></g><g fill="#00c655" fill-opacity="1"><g transform="translate(340.879427, 593.273639)"><g><path d="M 9.078125 -16.015625 L 9.109375 -17.0625 C 9.109375 -17.425781 9.066406 -17.617188 8.984375 -17.640625 C 8.910156 -17.671875 8.820312 -17.726562 8.71875 -17.8125 C 8.625 -17.90625 8.488281 -17.925781 8.3125 -17.875 C 8.144531 -17.820312 7.945312 -17.8125 7.71875 -17.84375 L 5.625 -17.5625 C 5.082031 -17.488281 4.613281 -17.453125 4.21875 -17.453125 C 3.832031 -17.453125 3.535156 -17.539062 3.328125 -17.71875 C 3.128906 -17.90625 2.925781 -18.734375 2.71875 -20.203125 L 7.21875 -21.09375 C 9.050781 -21.09375 10.195312 -20.957031 10.65625 -20.6875 C 11.125 -20.414062 11.460938 -20.1875 11.671875 -20 C 11.878906 -19.820312 12.019531 -19.460938 12.09375 -18.921875 C 12.226562 -18.253906 12.296875 -17.195312 12.296875 -15.75 L 12.296875 0 C 10.796875 0 9.847656 -0.078125 9.453125 -0.234375 C 9.066406 -0.390625 8.863281 -0.765625 8.84375 -1.359375 L 5.625 0.265625 C 4.894531 0.265625 4.351562 0.257812 4 0.25 C 3.65625 0.238281 3.304688 0.128906 2.953125 -0.078125 C 2.609375 -0.285156 2.378906 -0.492188 2.265625 -0.703125 C 2.148438 -0.910156 2.039062 -1.347656 1.9375 -2.015625 C 1.8125 -2.816406 1.75 -4.457031 1.75 -6.9375 L 1.75 -9.625 C 1.75 -12.539062 4.296875 -14.050781 9.390625 -14.15625 L 9.078125 -15.078125 Z M 5.390625 -3.03125 C 5.410156 -3.03125 6.71875 -3.519531 9.3125 -4.5 L 8.921875 -5.625 L 8.921875 -10.234375 L 9.234375 -11.125 C 8.171875 -11.101562 7.238281 -11 6.4375 -10.8125 C 5.632812 -10.632812 5.234375 -10.390625 5.234375 -10.078125 L 5.203125 -4.96875 C 5.203125 -3.675781 5.265625 -3.03125 5.390625 -3.03125 Z M 5.390625 -3.03125 "/></g></g></g><g fill="#00c655" fill-opacity="1"><g transform="translate(354.915148, 593.273639)"><g><path d="M 4.453125 -22.796875 C 3.835938 -22.796875 3.296875 -23.035156 2.828125 -23.515625 C 2.367188 -23.992188 2.140625 -24.550781 2.140625 -25.1875 C 2.140625 -25.820312 2.367188 -26.359375 2.828125 -26.796875 C 3.296875 -27.234375 3.835938 -27.453125 4.453125 -27.453125 C 5.078125 -27.453125 5.617188 -27.234375 6.078125 -26.796875 C 6.546875 -26.359375 6.78125 -25.820312 6.78125 -25.1875 C 6.78125 -24.550781 6.546875 -23.992188 6.078125 -23.515625 C 5.617188 -23.035156 5.078125 -22.796875 4.453125 -22.796875 Z M 2.75 -2.171875 L 2.75 -20.828125 C 4.488281 -20.828125 5.5 -20.726562 5.78125 -20.53125 C 6.0625 -20.34375 6.203125 -19.664062 6.203125 -18.5 L 6.203125 0.15625 C 4.472656 0.15625 3.460938 0.0625 3.171875 -0.125 C 2.890625 -0.320312 2.75 -1.003906 2.75 -2.171875 Z M 2.75 -2.171875 "/></g></g></g><g fill="#00c655" fill-opacity="1"><g transform="translate(363.832867, 593.273639)"><g><path d="M 9.578125 -20.828125 C 9.578125 -19.347656 9.441406 -18.429688 9.171875 -18.078125 C 8.898438 -17.734375 8.101562 -17.5625 6.78125 -17.5625 L 5.65625 -17.5625 L 6.015625 -16.59375 L 6.015625 -8.921875 C 6.015625 -6.722656 6.097656 -5.21875 6.265625 -4.40625 C 6.429688 -3.59375 6.785156 -3.132812 7.328125 -3.03125 L 10.28125 -3.03125 L 10.28125 0 L 7.140625 0.1875 C 5.847656 0.1875 4.992188 0.0625 4.578125 -0.1875 C 4.160156 -0.445312 3.847656 -0.65625 3.640625 -0.8125 C 3.429688 -0.96875 3.25 -1.285156 3.09375 -1.765625 C 2.945312 -2.242188 2.832031 -2.628906 2.75 -2.921875 C 2.675781 -3.222656 2.617188 -3.765625 2.578125 -4.546875 C 2.535156 -5.335938 2.515625 -5.992188 2.515625 -6.515625 L 2.515625 -16.59375 L 2.828125 -17.5625 L 0.78125 -17.5625 L 0.78125 -20.828125 L 2.828125 -20.828125 L 2.515625 -22.265625 L 2.515625 -24.234375 C 4.253906 -24.234375 5.269531 -24.148438 5.5625 -23.984375 C 5.863281 -23.816406 6.015625 -23.203125 6.015625 -22.140625 L 5.703125 -20.828125 Z M 9.578125 -20.828125 "/></g></g></g><g fill="#00c655" fill-opacity="1"><g transform="translate(374.883079, 593.273639)"><g><path d="M 1.390625 -3.40625 C 3.722656 -3.15625 5.265625 -3.03125 6.015625 -3.03125 C 6.765625 -3.03125 7.253906 -3.09375 7.484375 -3.21875 C 7.710938 -3.34375 7.882812 -3.476562 8 -3.625 C 8.125 -3.769531 8.210938 -4.035156 8.265625 -4.421875 C 8.335938 -4.960938 8.375 -5.644531 8.375 -6.46875 C 8.375 -7.09375 7.210938 -8.285156 4.890625 -10.046875 C 4.003906 -10.691406 3.191406 -11.5 2.453125 -12.46875 C 1.722656 -13.4375 1.359375 -14.347656 1.359375 -15.203125 C 1.359375 -16.054688 1.367188 -16.6875 1.390625 -17.09375 C 1.421875 -17.507812 1.53125 -18.019531 1.71875 -18.625 C 1.914062 -19.238281 2.195312 -19.6875 2.5625 -19.96875 C 3.570312 -20.71875 5.03125 -21.09375 6.9375 -21.09375 L 11.484375 -20.171875 C 11.273438 -18.671875 11.070312 -17.832031 10.875 -17.65625 C 10.6875 -17.488281 10.390625 -17.40625 9.984375 -17.40625 C 9.585938 -17.40625 9.117188 -17.445312 8.578125 -17.53125 L 7.0625 -17.796875 C 6 -17.796875 5.351562 -17.566406 5.125 -17.109375 C 4.9375 -16.742188 4.84375 -16.265625 4.84375 -15.671875 C 4.84375 -15.078125 5.21875 -14.441406 5.96875 -13.765625 C 6.71875 -13.097656 7.550781 -12.453125 8.46875 -11.828125 C 9.382812 -11.203125 10.21875 -10.429688 10.96875 -9.515625 C 11.71875 -8.597656 12.09375 -7.6875 12.09375 -6.78125 C 12.09375 -5.875 12.078125 -5.1875 12.046875 -4.71875 C 12.023438 -4.257812 11.914062 -3.65625 11.71875 -2.90625 C 11.53125 -2.15625 11.253906 -1.585938 10.890625 -1.203125 C 10.535156 -0.816406 9.988281 -0.472656 9.25 -0.171875 C 8.507812 0.117188 7.742188 0.265625 6.953125 0.265625 C 6.171875 0.265625 5.5 0.234375 4.9375 0.171875 C 4.382812 0.109375 3.738281 0.015625 3 -0.109375 C 2.269531 -0.242188 1.734375 -0.335938 1.390625 -0.390625 Z M 1.390625 -3.40625 "/></g></g></g><g fill="#00c655" fill-opacity="1"><g transform="translate(388.342078, 593.273639)"><g/></g></g><g fill="#151d1f" fill-opacity="1"><g transform="translate(243.072886, 682.359028)"><g><path d="M 9.75 -23.828125 L 9.75 -3.78125 L 9.515625 -3.265625 L 13.71875 -3.265625 L 13.71875 0 L 2.203125 0 C 2.203125 -1.570312 2.316406 -2.507812 2.546875 -2.8125 C 2.785156 -3.113281 3.554688 -3.265625 4.859375 -3.265625 L 6.546875 -3.265625 L 6.328125 -3.78125 L 6.328125 -22.875 L 4.125 -22.5 L 4.125 -25.625 L 6.875 -26.03125 L 7.125 -26.03125 C 8.40625 -26.03125 9.160156 -25.9375 9.390625 -25.75 C 9.628906 -25.570312 9.75 -24.929688 9.75 -23.828125 Z M 9.75 -23.828125 "/></g></g></g><g fill="#151d1f" fill-opacity="1"><g transform="translate(258.144895, 682.359028)"><g><path d="M 9.75 -23.828125 L 9.75 -3.78125 L 9.515625 -3.265625 L 13.71875 -3.265625 L 13.71875 0 L 2.203125 0 C 2.203125 -1.570312 2.316406 -2.507812 2.546875 -2.8125 C 2.785156 -3.113281 3.554688 -3.265625 4.859375 -3.265625 L 6.546875 -3.265625 L 6.328125 -3.78125 L 6.328125 -22.875 L 4.125 -22.5 L 4.125 -25.625 L 6.875 -26.03125 L 7.125 -26.03125 C 8.40625 -26.03125 9.160156 -25.9375 9.390625 -25.75 C 9.628906 -25.570312 9.75 -24.929688 9.75 -23.828125 Z M 9.75 -23.828125 "/></g></g></g><g fill="#151d1f" fill-opacity="1"><g transform="translate(273.216904, 682.359028)"><g><path d="M 3.453125 0 C 2.867188 0 2.351562 -0.21875 1.90625 -0.65625 C 1.46875 -1.101562 1.25 -1.625 1.25 -2.21875 C 1.25 -2.820312 1.46875 -3.332031 1.90625 -3.75 C 2.351562 -4.164062 2.867188 -4.375 3.453125 -4.375 C 4.046875 -4.375 4.5625 -4.164062 5 -3.75 C 5.4375 -3.332031 5.65625 -2.820312 5.65625 -2.21875 C 5.65625 -1.625 5.4375 -1.101562 5 -0.65625 C 4.5625 -0.21875 4.046875 0 3.453125 0 Z M 3.671875 -15.375 C 3.085938 -15.375 2.570312 -15.59375 2.125 -16.03125 C 1.6875 -16.46875 1.46875 -16.988281 1.46875 -17.59375 C 1.46875 -18.195312 1.6875 -18.707031 2.125 -19.125 C 2.570312 -19.539062 3.09375 -19.75 3.6875 -19.75 C 4.289062 -19.75 4.8125 -19.539062 5.25 -19.125 C 5.695312 -18.707031 5.921875 -18.195312 5.921875 -17.59375 C 5.921875 -16.988281 5.691406 -16.46875 5.234375 -16.03125 C 4.785156 -15.59375 4.265625 -15.375 3.671875 -15.375 Z M 3.671875 -15.375 "/></g></g></g><g fill="#151d1f" fill-opacity="1"><g transform="translate(280.275016, 682.359028)"><g><path d="M 2.421875 -5.703125 C 2.328125 -6.992188 2.265625 -8.082031 2.234375 -8.96875 C 2.210938 -9.851562 2.203125 -11.359375 2.203125 -13.484375 C 2.203125 -15.617188 2.21875 -17.195312 2.25 -18.21875 C 2.289062 -19.238281 2.40625 -20.421875 2.59375 -21.765625 C 2.78125 -23.109375 3.082031 -24.039062 3.5 -24.5625 C 4.570312 -25.832031 6.140625 -26.46875 8.203125 -26.46875 C 9.179688 -26.46875 10.015625 -26.375 10.703125 -26.1875 C 11.390625 -26.007812 11.953125 -25.617188 12.390625 -25.015625 C 12.828125 -24.421875 13.164062 -23.863281 13.40625 -23.34375 C 13.65625 -22.832031 13.832031 -21.9375 13.9375 -20.65625 C 14.082031 -18.75 14.15625 -16.453125 14.15625 -13.765625 C 14.15625 -11.085938 14.132812 -9.234375 14.09375 -8.203125 C 14.0625 -7.171875 13.953125 -5.96875 13.765625 -4.59375 C 13.585938 -3.21875 13.289062 -2.273438 12.875 -1.765625 C 11.8125 -0.421875 10.253906 0.25 8.203125 0.25 C 7.222656 0.25 6.378906 0.15625 5.671875 -0.03125 C 4.972656 -0.226562 4.40625 -0.640625 3.96875 -1.265625 C 3.53125 -1.890625 3.1875 -2.460938 2.9375 -2.984375 C 2.695312 -3.515625 2.523438 -4.421875 2.421875 -5.703125 Z M 8.203125 -23.234375 C 7.023438 -23.234375 6.300781 -22.519531 6.03125 -21.09375 C 5.757812 -19.675781 5.625 -17.492188 5.625 -14.546875 C 5.625 -11.609375 5.632812 -9.6875 5.65625 -8.78125 C 5.6875 -7.875 5.78125 -6.875 5.9375 -5.78125 C 6.09375 -4.695312 6.347656 -3.957031 6.703125 -3.5625 C 7.066406 -3.175781 7.566406 -2.984375 8.203125 -2.984375 C 9.347656 -2.984375 10.054688 -3.722656 10.328125 -5.203125 C 10.597656 -6.679688 10.734375 -8.890625 10.734375 -11.828125 C 10.734375 -14.773438 10.71875 -16.695312 10.6875 -17.59375 C 10.664062 -18.488281 10.578125 -19.46875 10.421875 -20.53125 C 10.265625 -21.601562 10.007812 -22.320312 9.65625 -22.6875 C 9.300781 -23.050781 8.816406 -23.234375 8.203125 -23.234375 Z M 8.203125 -23.234375 "/></g></g></g><g fill="#151d1f" fill-opacity="1"><g transform="translate(295.347026, 682.359028)"><g><path d="M 2.421875 -5.703125 C 2.328125 -6.992188 2.265625 -8.082031 2.234375 -8.96875 C 2.210938 -9.851562 2.203125 -11.359375 2.203125 -13.484375 C 2.203125 -15.617188 2.21875 -17.195312 2.25 -18.21875 C 2.289062 -19.238281 2.40625 -20.421875 2.59375 -21.765625 C 2.78125 -23.109375 3.082031 -24.039062 3.5 -24.5625 C 4.570312 -25.832031 6.140625 -26.46875 8.203125 -26.46875 C 9.179688 -26.46875 10.015625 -26.375 10.703125 -26.1875 C 11.390625 -26.007812 11.953125 -25.617188 12.390625 -25.015625 C 12.828125 -24.421875 13.164062 -23.863281 13.40625 -23.34375 C 13.65625 -22.832031 13.832031 -21.9375 13.9375 -20.65625 C 14.082031 -18.75 14.15625 -16.453125 14.15625 -13.765625 C 14.15625 -11.085938 14.132812 -9.234375 14.09375 -8.203125 C 14.0625 -7.171875 13.953125 -5.96875 13.765625 -4.59375 C 13.585938 -3.21875 13.289062 -2.273438 12.875 -1.765625 C 11.8125 -0.421875 10.253906 0.25 8.203125 0.25 C 7.222656 0.25 6.378906 0.15625 5.671875 -0.03125 C 4.972656 -0.226562 4.40625 -0.640625 3.96875 -1.265625 C 3.53125 -1.890625 3.1875 -2.460938 2.9375 -2.984375 C 2.695312 -3.515625 2.523438 -4.421875 2.421875 -5.703125 Z M 8.203125 -23.234375 C 7.023438 -23.234375 6.300781 -22.519531 6.03125 -21.09375 C 5.757812 -19.675781 5.625 -17.492188 5.625 -14.546875 C 5.625 -11.609375 5.632812 -9.6875 5.65625 -8.78125 C 5.6875 -7.875 5.78125 -6.875 5.9375 -5.78125 C 6.09375 -4.695312 6.347656 -3.957031 6.703125 -3.5625 C 7.066406 -3.175781 7.566406 -2.984375 8.203125 -2.984375 C 9.347656 -2.984375 10.054688 -3.722656 10.328125 -5.203125 C 10.597656 -6.679688 10.734375 -8.890625 10.734375 -11.828125 C 10.734375 -14.773438 10.71875 -16.695312 10.6875 -17.59375 C 10.664062 -18.488281 10.578125 -19.46875 10.421875 -20.53125 C 10.265625 -21.601562 10.007812 -22.320312 9.65625 -22.6875 C 9.300781 -23.050781 8.816406 -23.234375 8.203125 -23.234375 Z M 8.203125 -23.234375 "/></g></g></g><g fill="#151d1f" fill-opacity="1"><g transform="translate(310.419035, 682.359028)"><g/></g></g><g fill="#151d1f" fill-opacity="1"><g transform="translate(317.403634, 682.359028)"><g><path d="M 5.65625 -2.25 C 5.65625 -1.113281 5.546875 -0.453125 5.328125 -0.265625 C 5.109375 -0.0859375 4.335938 0 3.015625 0 L 2.203125 0 L 2.203125 -26.515625 L 8.15625 -26.90625 C 10.613281 -26.90625 12.304688 -26.585938 13.234375 -25.953125 C 13.578125 -25.710938 13.863281 -25.492188 14.09375 -25.296875 C 14.332031 -25.097656 14.53125 -24.796875 14.6875 -24.390625 C 14.84375 -23.984375 14.960938 -23.648438 15.046875 -23.390625 C 15.140625 -23.140625 15.195312 -22.742188 15.21875 -22.203125 C 15.289062 -21.273438 15.328125 -20.335938 15.328125 -19.390625 C 15.328125 -18.453125 15.3125 -17.742188 15.28125 -17.265625 C 15.257812 -16.785156 15.179688 -16.203125 15.046875 -15.515625 C 14.921875 -14.828125 14.707031 -14.3125 14.40625 -13.96875 C 14.113281 -13.625 13.710938 -13.28125 13.203125 -12.9375 C 12.296875 -12.300781 10.628906 -11.984375 8.203125 -11.984375 L 5.65625 -11.984375 Z M 8.203125 -15.25 C 9.398438 -15.25 10.332031 -15.445312 11 -15.84375 C 11.414062 -16.09375 11.660156 -16.742188 11.734375 -17.796875 C 11.753906 -18.140625 11.765625 -18.679688 11.765625 -19.421875 C 11.765625 -20.171875 11.75 -20.710938 11.71875 -21.046875 C 11.695312 -21.378906 11.628906 -21.757812 11.515625 -22.1875 C 11.410156 -22.613281 11.238281 -22.898438 11 -23.046875 C 10.332031 -23.441406 9.398438 -23.640625 8.203125 -23.640625 L 5.375 -23.640625 L 5.65625 -22.71875 L 5.65625 -16.109375 L 5.375 -15.25 Z M 8.203125 -15.25 "/></g></g></g><g fill="#151d1f" fill-opacity="1"><g transform="translate(334.571023, 682.359028)"><g><path d="M 5.109375 -19 L 5.109375 -2.25 C 5.109375 -1.113281 4.988281 -0.453125 4.75 -0.265625 C 4.519531 -0.0859375 3.757812 0 2.46875 0 L 1.65625 0 L 1.65625 -26.46875 L 2.5 -26.46875 C 3.675781 -26.46875 4.410156 -26.378906 4.703125 -26.203125 C 4.992188 -26.035156 5.375 -25.453125 5.84375 -24.453125 L 9.859375 -15.296875 L 10.59375 -15.296875 L 15.515625 -26.46875 L 16.0625 -26.46875 C 17.382812 -26.46875 18.160156 -26.375 18.390625 -26.1875 C 18.628906 -26.007812 18.75 -25.359375 18.75 -24.234375 L 18.75 0 L 17.9375 0 C 16.613281 0 15.84375 -0.0859375 15.625 -0.265625 C 15.40625 -0.453125 15.296875 -1.113281 15.296875 -2.25 L 15.25 -18.96875 L 15.140625 -18.96875 L 12.421875 -12.390625 L 11.4375 -10.546875 L 9 -10.546875 L 8.015625 -12.390625 L 5.21875 -19 Z M 5.109375 -19 "/></g></g></g><path fill="#e8e1db" d="M 399.75 40.453125 C 399.75 54.28125 399.773438 54.5 401.066406 57.128906 C 402.042969 59.121094 404.113281 61.214844 406.046875 62.191406 C 408.71875 63.527344 409.273438 63.625 414.59375 63.625 C 419.058594 63.625 419.476562 63.585938 420.871094 63.167969 C 421.6875 62.90625 422.863281 62.410156 423.480469 62.089844 L 424.597656 61.472656 L 425.550781 62.132812 C 426.507812 62.789062 428.917969 63.90625 429.398438 63.925781 C 429.578125 63.925781 429.636719 63.367188 429.636719 61.773438 L 429.636719 59.640625 L 428.738281 59.261719 C 427.445312 58.746094 425.992188 57.347656 425.472656 56.152344 L 425.035156 55.117188 L 424.417969 56.035156 C 423.640625 57.210938 421.984375 58.40625 420.3125 58.984375 C 419.078125 59.402344 418.660156 59.441406 414.496094 59.441406 C 410.269531 59.441406 409.953125 59.402344 408.855469 58.964844 C 406.683594 58.105469 405.050781 56.472656 404.394531 54.5 C 404.074219 53.5625 404.035156 52.230469 403.976562 40.753906 L 403.914062 28.0625 L 399.75 28.0625 Z M 399.75 40.453125 " fill-opacity="1" fill-rule="nonzero"/><path fill="#e8e1db" d="M 404.574219 40.851562 L 404.632812 53.664062 L 405.210938 54.917969 C 405.929688 56.453125 407.28125 57.75 408.875 58.386719 C 409.894531 58.785156 410.410156 58.84375 414.035156 58.902344 C 417.246094 58.964844 418.300781 58.902344 419.296875 58.644531 C 421.746094 58.027344 423.339844 56.929688 424.21875 55.277344 L 424.753906 54.261719 L 424.816406 41.152344 L 424.875 28.0625 L 420.472656 28.0625 L 420.433594 40.296875 C 420.371094 52.367188 420.371094 52.546875 419.953125 53.105469 C 419.734375 53.40625 419.238281 53.863281 418.878906 54.101562 C 418.261719 54.539062 418.019531 54.558594 414.59375 54.558594 C 411.167969 54.558594 410.929688 54.539062 410.3125 54.101562 C 409.953125 53.863281 409.453125 53.40625 409.234375 53.105469 C 408.816406 52.546875 408.816406 52.367188 408.757812 40.296875 L 408.699219 28.0625 L 404.511719 28.0625 Z M 404.574219 40.851562 " fill-opacity="1" fill-rule="nonzero"/><path fill="#e8e1db" d="M 425.351562 34.277344 C 425.273438 37.707031 425.253906 43.703125 425.292969 47.585938 C 425.371094 55.277344 425.371094 55.296875 426.570312 56.890625 C 427.105469 57.589844 428.460938 58.605469 429.199219 58.824219 L 429.636719 58.964844 L 429.636719 28.0625 L 425.492188 28.0625 Z M 425.351562 34.277344 " fill-opacity="1" fill-rule="nonzero"/><path fill="#e8e1db" d="M 507.136719 30.15625 L 507.136719 32.246094 L 530.847656 32.246094 L 530.847656 32.785156 C 530.847656 33.480469 530.386719 35.195312 530.050781 35.832031 C 529.910156 36.089844 528.753906 37.425781 527.460938 38.800781 C 518.933594 47.964844 511.839844 55.734375 511.582031 56.234375 C 511.421875 56.53125 511.242188 57.269531 511.183594 57.867188 L 511.0625 58.945312 L 534.632812 58.945312 L 534.632812 54.757812 L 526.621094 54.71875 L 518.613281 54.660156 L 526.125 46.492188 C 533.972656 37.984375 534.332031 37.507812 534.8125 35.273438 C 534.929688 34.695312 535.03125 32.824219 535.03125 31.152344 L 535.03125 28.0625 L 507.136719 28.0625 Z M 507.136719 30.15625 " fill-opacity="1" fill-rule="nonzero"/><path fill="#e8e1db" d="M 554.753906 30.214844 L 554.753906 32.40625 L 555.808594 33.003906 C 557.703125 34.058594 558.957031 35.953125 559.335938 38.242188 C 559.4375 38.941406 559.535156 40.652344 559.535156 42.046875 L 559.535156 44.597656 L 566.308594 44.597656 L 566.308594 40.414062 L 564.933594 40.414062 C 563.378906 40.414062 563.339844 40.355469 563.320312 38.621094 C 563.320312 37.425781 562.863281 35.554688 562.226562 34.121094 C 560.910156 31.152344 558.640625 29.238281 555.210938 28.183594 C 554.753906 28.042969 554.753906 28.042969 554.753906 30.214844 Z M 554.753906 30.214844 " fill-opacity="1" fill-rule="nonzero"/><path fill="#e8e1db" d="M 253.21875 28.78125 C 245.945312 30.054688 240.445312 33.859375 237.578125 39.558594 C 235.804688 43.105469 235.1875 47.628906 235.882812 51.992188 C 236.839844 58.046875 239.191406 62.929688 242.957031 66.734375 C 244.769531 68.546875 246.203125 69.523438 248.515625 70.5 C 254.59375 73.089844 263.277344 72.132812 269.15625 68.207031 C 272.484375 65.996094 275.710938 61.851562 276.925781 58.246094 C 277.882812 55.335938 277.902344 55.21875 277.902344 50.574219 C 277.902344 45.734375 277.722656 44.339844 276.6875 41.511719 C 274.355469 35.15625 268.71875 30.453125 261.484375 28.839844 C 259.433594 28.402344 255.589844 28.363281 253.21875 28.78125 Z M 253.21875 28.78125 " fill-opacity="1" fill-rule="nonzero"/><path fill="#e8e1db" d="M 324.183594 28.660156 C 314.699219 29.515625 309.042969 31.75 304.71875 36.351562 C 300.234375 41.132812 298.621094 46.910156 299.636719 54.660156 C 300.296875 59.820312 301.910156 63.148438 305.296875 66.355469 C 308.125 69.042969 311.769531 70.9375 315.65625 71.734375 C 318.304688 72.292969 322.667969 72.152344 325.457031 71.433594 C 329.761719 70.320312 333.289062 68.308594 335.839844 65.539062 C 339.34375 61.710938 341 56.613281 340.402344 51.453125 C 340.160156 49.378906 340.300781 48.601562 341.117188 47.726562 C 342.414062 46.371094 344.683594 45.992188 349.285156 46.371094 C 357.175781 47.007812 363.730469 49.339844 371.0625 54.101562 C 372.4375 55 374.03125 55.875 374.609375 56.054688 C 375.566406 56.375 375.683594 56.375 376.144531 56.074219 C 376.921875 55.554688 376.761719 54.980469 375.347656 53.046875 C 372.335938 48.960938 370.703125 47.128906 367.398438 44.039062 C 358.628906 35.890625 348.210938 30.652344 337.292969 28.960938 C 334.921875 28.582031 327.03125 28.402344 324.183594 28.660156 Z M 324.183594 28.660156 " fill-opacity="1" fill-rule="nonzero"/><path fill="#e8e1db" d="M 543.039062 29.558594 C 541.902344 30.054688 541.027344 30.871094 540.527344 31.90625 C 539.8125 33.382812 539.710938 34.378906 540.089844 35.734375 C 540.988281 38.78125 544.394531 40.234375 547.300781 38.78125 C 549.574219 37.664062 550.648438 34.71875 549.671875 32.285156 C 549.253906 31.25 547.621094 29.734375 546.625 29.457031 C 545.589844 29.179688 543.816406 29.21875 543.039062 29.558594 Z M 545.351562 34.296875 C 545.429688 34.695312 544.851562 34.976562 544.554688 34.675781 C 544.253906 34.378906 544.53125 33.800781 544.929688 33.878906 C 545.128906 33.921875 545.308594 34.097656 545.351562 34.296875 Z M 545.351562 34.296875 " fill-opacity="1" fill-rule="nonzero"/><path fill="#e8e1db" d="M 507.136719 34.9375 L 507.136719 37.027344 L 514.789062 37.066406 L 522.4375 37.128906 L 515.1875 44.996094 C 511.183594 49.320312 507.65625 53.324219 507.316406 53.902344 C 506.460938 55.398438 506.140625 57.148438 506.140625 60.675781 L 506.140625 63.726562 L 534.632812 63.726562 L 534.632812 59.542969 L 510.285156 59.542969 L 510.40625 58.984375 C 510.464844 58.683594 510.5625 58.046875 510.644531 57.550781 C 510.703125 57.050781 510.941406 56.332031 511.140625 55.953125 C 511.339844 55.578125 513.074219 53.542969 515.027344 51.472656 C 525.605469 40.097656 529.191406 36.152344 529.589844 35.375 C 529.828125 34.917969 530.089844 34.160156 530.167969 33.679688 L 530.308594 32.84375 L 507.136719 32.84375 Z M 507.136719 34.9375 " fill-opacity="1" fill-rule="nonzero"/><path fill="#e8e1db" d="M 554.753906 43.285156 C 554.753906 49.917969 554.832031 53.921875 554.972656 54.601562 C 555.09375 55.179688 555.550781 56.394531 555.988281 57.308594 C 557.683594 60.875 561.148438 63.328125 565.195312 63.824219 L 566.308594 63.964844 L 566.308594 59.78125 L 565.472656 59.640625 C 562.882812 59.203125 560.808594 57.6875 559.695312 55.398438 L 559.039062 54.082031 L 558.9375 45.894531 L 558.839844 37.726562 L 558.300781 36.589844 C 557.742188 35.375 556.386719 33.878906 555.371094 33.363281 L 554.753906 33.023438 Z M 554.753906 43.285156 " fill-opacity="1" fill-rule="nonzero"/><path fill="#e8e1db" d="M 444.578125 40.335938 C 442.984375 40.675781 441.96875 41.074219 440.734375 41.828125 L 439.777344 42.425781 L 438.640625 41.730469 C 437.527344 41.03125 436.03125 40.414062 435.492188 40.414062 C 435.273438 40.414062 435.214844 40.875 435.214844 42.566406 L 435.214844 44.699219 L 436.113281 45.175781 C 437.246094 45.773438 438.703125 47.328125 439.257812 48.5625 L 439.71875 49.519531 L 440.277344 48.34375 C 440.632812 47.628906 441.273438 46.789062 441.910156 46.191406 C 445.875 42.585938 452.347656 44.378906 453.941406 49.5 C 454.300781 50.714844 454.339844 51.351562 454.339844 57.269531 L 454.339844 63.726562 L 458.523438 63.726562 L 458.523438 57.191406 C 458.523438 53.425781 458.425781 50.15625 458.304688 49.460938 C 457.949219 47.40625 456.671875 45.097656 455.039062 43.484375 C 452.167969 40.652344 448.382812 39.5 444.578125 40.335938 Z M 444.578125 40.335938 " fill-opacity="1" fill-rule="nonzero"/><path fill="#e8e1db" d="M 472.96875 40.316406 C 471.496094 40.632812 470.460938 41.074219 469.242188 41.847656 L 468.308594 42.445312 L 467.152344 41.75 C 466.097656 41.113281 464.382812 40.414062 463.90625 40.414062 C 463.785156 40.414062 463.707031 41.3125 463.707031 42.566406 L 463.707031 44.699219 L 464.601562 45.175781 C 465.757812 45.773438 467.191406 47.328125 467.769531 48.5625 L 468.207031 49.519531 L 468.863281 48.265625 C 469.601562 46.832031 470.597656 45.855469 472.113281 45.058594 C 473.070312 44.558594 473.347656 44.5 475.261719 44.5 C 477.171875 44.5 477.453125 44.558594 478.527344 45.078125 C 480.003906 45.792969 481.21875 46.988281 481.855469 48.34375 C 482.113281 48.902344 482.371094 49.359375 482.433594 49.378906 C 482.492188 49.378906 482.75 48.941406 483.011719 48.382812 C 483.570312 47.1875 484.984375 45.835938 486.4375 45.058594 C 487.414062 44.539062 487.691406 44.5 489.605469 44.5 C 491.519531 44.5 491.796875 44.539062 492.851562 45.078125 C 494.265625 45.792969 495.640625 47.230469 496.339844 48.742188 L 496.878906 49.878906 L 496.9375 56.792969 L 496.996094 63.726562 L 501.160156 63.726562 L 501.160156 57.050781 C 501.160156 53.027344 501.082031 49.976562 500.941406 49.339844 C 500.820312 48.761719 500.363281 47.527344 499.925781 46.589844 C 497.035156 40.535156 489.464844 38.261719 483.726562 41.710938 L 482.550781 42.425781 L 480.839844 41.53125 C 478.1875 40.136719 475.578125 39.738281 472.96875 40.316406 Z M 472.96875 40.316406 " fill-opacity="1" fill-rule="nonzero"/><path fill="#e8e1db" d="M 540.410156 52.070312 L 540.410156 63.726562 L 544.59375 63.726562 L 544.59375 40.414062 L 540.410156 40.414062 Z M 540.410156 52.070312 " fill-opacity="1" fill-rule="nonzero"/><path fill="#e8e1db" d="M 545.191406 52.070312 L 545.191406 63.726562 L 549.375 63.726562 L 549.375 40.414062 L 545.191406 40.414062 Z M 545.191406 52.070312 " fill-opacity="1" fill-rule="nonzero"/><path fill="#e8e1db" d="M 445.316406 44.996094 C 443.402344 45.476562 441.492188 47.109375 440.613281 48.980469 L 440.097656 50.078125 L 440.035156 56.890625 L 439.976562 63.726562 L 444.160156 63.726562 L 444.21875 57.289062 L 444.28125 50.835938 L 444.839844 50.117188 C 446.035156 48.542969 448.34375 48.800781 449.28125 50.617188 C 449.5 51.035156 449.558594 52.449219 449.558594 57.449219 L 449.558594 63.726562 L 453.761719 63.726562 L 453.703125 56.792969 C 453.644531 49.996094 453.644531 49.859375 453.1875 48.941406 C 451.691406 45.953125 448.304688 44.261719 445.316406 44.996094 Z M 445.316406 44.996094 " fill-opacity="1" fill-rule="nonzero"/><path fill="#e8e1db" d="M 473.328125 45.078125 C 471.554688 45.65625 469.820312 47.207031 469.023438 48.941406 C 468.605469 49.839844 468.585938 50.195312 468.527344 56.792969 L 468.464844 63.726562 L 472.671875 63.726562 L 472.671875 57.550781 C 472.671875 50.894531 472.710938 50.535156 473.726562 49.621094 C 474.761719 48.644531 476.59375 48.960938 477.53125 50.238281 C 477.929688 50.773438 477.949219 51.09375 478.011719 57.269531 L 478.070312 63.726562 L 482.234375 63.726562 L 482.234375 57.488281 C 482.234375 50.457031 482.113281 49.597656 480.917969 47.847656 C 480.140625 46.710938 479.425781 46.09375 478.050781 45.394531 C 476.933594 44.816406 474.582031 44.660156 473.328125 45.078125 Z M 473.328125 45.078125 " fill-opacity="1" fill-rule="nonzero"/><path fill="#e8e1db" d="M 487.710938 45.058594 C 485.839844 45.675781 484.386719 46.929688 483.46875 48.683594 L 482.929688 49.679688 L 482.871094 56.691406 L 482.8125 63.726562 L 487.015625 63.726562 L 487.015625 57.289062 C 487.015625 51.214844 487.035156 50.835938 487.414062 50.21875 C 487.832031 49.539062 488.828125 48.980469 489.625 48.980469 C 490.421875 48.980469 491.417969 49.621094 491.796875 50.394531 C 492.175781 51.09375 492.195312 51.613281 492.195312 57.449219 L 492.195312 63.726562 L 496.398438 63.726562 L 496.339844 56.792969 L 496.28125 49.878906 L 495.761719 48.78125 C 495.125 47.429688 493.828125 46.132812 492.433594 45.457031 C 491.160156 44.835938 488.96875 44.660156 487.710938 45.058594 Z M 487.710938 45.058594 " fill-opacity="1" fill-rule="nonzero"/><path fill="#e8e1db" d="M 559.535156 49.378906 C 559.535156 53.105469 559.574219 53.664062 559.953125 54.660156 C 560.769531 56.832031 563.082031 58.683594 565.472656 59.0625 L 566.308594 59.203125 L 566.308594 57.070312 C 566.308594 55.21875 566.269531 54.9375 565.96875 54.839844 C 565.152344 54.601562 564.597656 54.203125 564.175781 53.585938 C 563.777344 53.007812 563.71875 52.648438 563.71875 51.152344 L 563.71875 49.378906 L 566.308594 49.378906 L 566.308594 45.195312 L 559.535156 45.195312 Z M 559.535156 49.378906 " fill-opacity="1" fill-rule="nonzero"/><path fill="#e8e1db" d="M 435.214844 54.558594 L 435.214844 63.726562 L 439.597656 63.726562 L 439.597656 57.988281 C 439.597656 50.4375 439.398438 49.28125 437.863281 47.25 C 437.386719 46.632812 435.734375 45.394531 435.375 45.394531 C 435.292969 45.394531 435.214844 49.519531 435.214844 54.558594 Z M 435.214844 54.558594 " fill-opacity="1" fill-rule="nonzero"/><path fill="#e8e1db" d="M 463.707031 54.558594 L 463.707031 63.726562 L 467.910156 63.726562 L 467.847656 56.691406 C 467.789062 49.738281 467.789062 49.679688 467.3125 48.78125 C 466.574219 47.40625 465.9375 46.671875 464.941406 45.992188 C 464.441406 45.675781 463.964844 45.394531 463.863281 45.394531 C 463.785156 45.394531 463.707031 49.519531 463.707031 54.558594 Z M 463.707031 54.558594 " fill-opacity="1" fill-rule="nonzero"/></svg>